<svg xmlns="http://www.w3.org/2000/svg" width="30" height="30" viewBox="0 0 30 30">
    <g fill="#000" fill-rule="nonzero" opacity=".3">
        <path d="M25.607 4.394A14.902 14.902 0 0 0 15 0C10.994 0 7.227 1.56 4.394 4.394A14.902 14.902 0 0 0 0 15c0 4.007 1.56 7.774 4.394 10.607A14.902 14.902 0 0 0 15 30c4.007 0 7.774-1.56 10.607-4.393A14.902 14.902 0 0 0 30 15c0-4.006-1.56-7.773-4.393-10.606zm-.663 20.55A13.97 13.97 0 0 1 15 29.063a13.97 13.97 0 0 1-9.944-4.119A13.97 13.97 0 0 1 .937 15a13.97 13.97 0 0 1 4.12-9.944A13.97 13.97 0 0 1 15 .937a13.97 13.97 0 0 1 9.944 4.12A13.97 13.97 0 0 1 29.063 15a13.97 13.97 0 0 1-4.12 9.944z"/>
        <path d="M19.083 21.858h2.905c.259 0 .469-.21.469-.469v-5.01c0-1.407-.364-2.514-1.08-3.29-.67-.727-1.616-1.111-2.734-1.111-.973 0-1.656.296-2.15.682v-.008a.469.469 0 0 0-.468-.469h-2.904a.469.469 0 0 0-.468.49c.036.798 0 8.635 0 8.714a.469.469 0 0 0 .468.47h2.904c.259 0 .469-.209.469-.468v-4.88c0-.254.02-.432.061-.532.094-.232.384-.77 1.056-.77.275 0 1.003 0 1.003 1.507v4.675c0 .259.21.469.47.469zm-1.472-7.59c-.863 0-1.582.508-1.924 1.355-.09.22-.13.493-.13.886v4.411h-1.965c.006-1.515.024-6.179.007-7.8h1.957v.769a.469.469 0 0 0 .862.255c.394-.607.966-1.229 2.225-1.229 1.828 0 2.876 1.263 2.876 3.464v4.541h-1.967v-4.206c0-.71-.142-1.28-.423-1.692-.335-.493-.86-.753-1.518-.753zM12.173 9.938c-.024-1.16-.885-1.97-2.093-1.97-1.223 0-2.111.833-2.111 1.98 0 1.146.871 1.978 2.073 1.978h.019c1.224 0 2.112-.832 2.112-1.978v-.01zm-2.112 1.05h-.02c-.679 0-1.135-.418-1.135-1.04 0-.623.472-1.042 1.174-1.042.697 0 1.14.4 1.155 1.046-.002.62-.473 1.037-1.174 1.037zM8.609 12.183a.469.469 0 0 0-.47.469v8.737c0 .259.21.469.47.469h2.905c.26 0 .469-.21.469-.469v-8.737a.469.469 0 0 0-.469-.47H8.61zm2.437 8.737H9.077v-7.8h1.969v7.8z"/>
    </g>
</svg>
