<svg width="50" height="50" xmlns="http://www.w3.org/2000/svg"><path d="M25 0c13.807 0 25 11.193 25 25S38.807 50 25 50 0 38.807 0 25 11.193 0 25 0zm-5.802 18.879h-5.537v16.66h5.537V18.88zm13.593-.391c-2.987 0-4.99 2.807-4.99 2.807v-2.416h-5.538v16.66H27.8v-9.303l.003-.213c.01-.425.054-.834.18-1.139.4-.995 1.311-2.025 2.841-2.025 2.004 0 2.805 1.528 2.805 3.768v8.913h5.538v-9.553l-.004-.31c-.108-4.904-2.803-7.19-6.372-7.19zm-16.325-7.641c-1.894 0-3.133 1.244-3.133 2.879 0 1.598 1.202 2.878 3.06 2.878h.036l.205-.005c1.811-.087 2.929-1.332 2.929-2.873-.036-1.635-1.202-2.88-3.097-2.88z" fill="#999AA6" fill-rule="evenodd"/></svg>