<svg width="23" height="19" xmlns="http://www.w3.org/2000/svg"><path d="M7.233 19c8.68 0 13.427-7.31 13.427-13.647 0-.208-.005-.415-.014-.62A9.692 9.692 0 0023 2.249a9.296 9.296 0 01-2.71.755A4.801 4.801 0 0022.365.351a9.372 9.372 0 01-2.996 1.164A4.678 4.678 0 0015.924 0c-2.606 0-4.719 2.148-4.719 4.796 0 .376.041.742.122 1.094-3.922-.201-7.4-2.11-9.726-5.012A4.846 4.846 0 00.96 3.29c0 1.664.834 3.133 2.1 3.992a4.624 4.624 0 01-2.137-.6v.062c0 2.323 1.626 4.262 3.786 4.702a4.664 4.664 0 01-2.132.082c.601 1.906 2.343 3.293 4.409 3.332A9.37 9.37 0 010 16.845 13.201 13.201 0 007.233 19" fill="#3A95FF" fill-rule="nonzero"/></svg>