<svg xmlns="http://www.w3.org/2000/svg" width="60" height="60" viewBox="0 0 60 60">
    <g fill="none">
        <path fill="#00A6FF" d="M26.201 5.626V4.97c0-2.098 1.701-3.8 3.8-3.8 2.097 0 3.798 1.702 3.798 3.8v.655h-7.598z" opacity=".5"/>
        <path fill="#00A6FF" d="M47.736 32.578h11.092c0 3.495-2.833 6.328-6.328 6.328h-45c-3.495 0-6.328-2.833-6.328-6.328h46.564z" opacity=".1"/>
        <path fill="#00A6FF" d="M53.861 39.94c-.893-.768-2.2-.812-3.143-.106l-6.164 4.616c-2.387 1.788-5.332 2.668-8.309 2.484l-1.006-.063-.036-.002c.052-.085.1-.172.145-.264.723-1.515-.001-3.326-1.57-3.924l-8.375-3.192c-2.037-.776-4.292-.755-6.314.059l-8.893 3.579 3.912 9.056 20.626 4.681c2.413.179 4.797-.616 6.62-2.207l3.4-2.965 5.703-4.977 3.417-2.98c1.15-1.005 1.145-2.797-.013-3.794z" opacity=".2"/>
        <path fill="#00A6FF" d="M4.567 40.665L12.302 40.665 12.302 58.009 4.567 58.009z" transform="rotate(-25.842 8.434 49.337)"/>
        <path fill="#00A6FF" d="M3.75 32.578c0-14.497 11.753-26.25 26.25-26.25 14.498 0 26.25 11.753 26.25 26.25H3.75z" opacity=".2"/>
        <path fill="#00A6FF" d="M32.199 17.522c-.866 0-1.647.378-2.199.983-.552-.605-1.333-.983-2.199-.983-1.671 0-3.026 1.407-3.026 3.142C24.775 23.59 30 27.07 30 27.07s5.226-3.48 5.226-6.406c0-1.735-1.356-3.142-3.027-3.142z"/>
        <path fill="#2B0392" d="M60 32.578c0-.647-.525-1.172-1.172-1.172h-1.432c-.288-6.884-3.104-13.316-8.006-18.218-3.987-3.987-8.987-6.594-14.419-7.583v-.634c0-2.741-2.23-4.971-4.97-4.971-2.742 0-4.972 2.23-4.972 4.97v.635c-5.432.99-10.432 3.596-14.419 7.583-4.902 4.902-7.718 11.334-8.005 18.218H1.172c-.647 0-1.172.525-1.172 1.172 0 3.45 2.343 6.362 5.52 7.233L.661 42.164c-.582.282-.826.983-.543 1.566.282.583.983.826 1.565.544l5.906-2.861 6.539 13.5-5.906 2.86c-.583.282-.826.983-.544 1.566.203.418.62.661 1.056.661.171 0 .345-.038.51-.117l6.96-3.372c.28-.135.495-.377.597-.67.102-.294.083-.616-.053-.896l-.553-1.142 16.806 3.417c.786.16 1.582.238 2.374.238 2.893 0 5.747-1.043 7.953-2.968l2.195-1.916c.488-.425.539-1.165.113-1.653-.426-.488-1.166-.538-1.653-.113l-2.196 1.916c-2.264 1.976-5.374 2.798-8.319 2.2L14.91 51.15l-3.51-7.245 8.126-3.27c1.754-.706 3.693-.724 5.46-.051l8.374 3.192c.45.171.795.511.974.958.179.447.163.932-.044 1.366-.362.758-1.21 1.136-2.016.9L25.5 45.012c-.62-.182-1.272.173-1.454.794-.182.621.173 1.272.794 1.455l6.774 1.988c.383.112.77.166 1.151.166 1.143 0 2.232-.486 2.995-1.337l.413.025c.283.018.565.026.847.026 2.96 0 5.856-.958 8.236-2.74l6.165-4.617c.498-.374 1.203-.35 1.675.057.299.257.464.615.465 1.01.002.393-.161.753-.458 1.012l-3.417 2.981c-.487.426-.538 1.166-.112 1.654.425.487 1.165.538 1.653.112l3.417-2.98c.805-.703 1.264-1.72 1.26-2.787-.002-.816-.275-1.6-.764-2.234 2.836-1.07 4.86-3.812 4.86-7.019zM27.373 4.971c0-1.449 1.179-2.627 2.627-2.627 1.449 0 2.627 1.178 2.627 2.627v.31c-.868-.082-1.744-.125-2.627-.125-.883 0-1.76.043-2.627.125v-.31zM30 7.5c13.435 0 24.435 10.62 25.05 23.905H4.95C5.565 18.12 16.565 7.5 30 7.5zM9.547 40.077h5.085l-4.256 1.713-.83-1.713zm34.304 3.434c-2.04 1.527-4.535 2.325-7.075 2.27.066-.646-.02-1.305-.266-1.918-.419-1.047-1.263-1.877-2.316-2.278l-3.956-1.508h18.2l-4.587 3.434zm-35.06 8.406c.308 0 .61.125.828.343.218.219.343.52.343.83 0 .307-.125.609-.343.828-.219.218-.52.343-.828.343-.309 0-.611-.125-.829-.343-.218-.22-.343-.52-.343-.829 0-.31.125-.61.343-.83.218-.217.52-.342.829-.342zm38.675-3.752c.308 0 .61.124.828.342.218.22.344.522.344.83 0 .308-.126.61-.344.829-.218.218-.52.343-.828.343-.309 0-.61-.125-.829-.343-.218-.218-.343-.52-.343-.829 0-.308.125-.61.343-.83.218-.217.52-.342.829-.342zM57.522 33.75c-.532 2.28-2.582 3.984-5.022 3.984h-45c-2.44 0-4.49-1.704-5.022-3.984h55.044zm-25.323-17.4c2.315 0 4.199 1.935 4.199 4.314 0 3.453-5.16 6.99-5.748 7.382-.197.13-.423.196-.65.196-.226 0-.453-.065-.65-.196-.588-.392-5.747-3.929-5.747-7.382 0-2.379 1.883-4.314 4.198-4.314.78 0 1.543.227 2.2.64.655-.413 1.418-.64 2.198-.64zm0 2.344c-.506 0-.98.213-1.333.6-.222.244-.536.383-.866.383-.33 0-.644-.14-.866-.383-.353-.387-.826-.6-1.333-.6-1.022 0-1.854.884-1.854 1.97 0 1.518 2.42 3.75 4.055 4.971 1.86-1.38 4.052-3.56 4.052-4.97 0-1.087-.832-1.971-1.855-1.971zm3.08-7.337c.173-.623.818-.989 1.442-.816 5.548 1.536 10.372 5.296 13.235 10.315.32.562.125 1.278-.438 1.598-.183.105-.382.155-.58.155-.406 0-.802-.213-1.018-.592-2.56-4.485-6.869-7.845-11.824-9.217-.624-.173-.99-.819-.817-1.443zm-4.44-1.612h.125c.647.004 1.169.532 1.165 1.179-.004.645-.528 1.165-1.172 1.165h-.119c-.647 0-1.171-.525-1.171-1.172 0-.648.524-1.172 1.172-1.172z"/>
    </g>
</svg>
