<svg xmlns="http://www.w3.org/2000/svg" width="96" height="28"><path fill="#FFF" d="M6.05 15.416c.32.143.592.366.849.62.048.048.096.112.144.16l.048-.032c0-.223.016-.446 0-.684 0-.112.032-.16.16-.16.946.016 1.875.016 2.82 0 .113 0 .145.032.145.144 0 2.736.016 5.488-.016 8.225 0 .636-.08 1.272-.385 1.845-.448.86-1.137 1.464-2.019 1.861-.69.319-1.41.446-2.164.494-.93.063-1.843 0-2.724-.319C1.802 27.19.92 26.505.36 25.455c-.112-.191-.16-.398-.209-.62-.032-.112-.016-.144.113-.144h3.22c.065 0 .113 0 .145.08.192.493.593.731 1.09.779.497.064.978.032 1.426-.223.577-.318.85-.811.914-1.432.032-.365.016-.747.016-1.145-.16.127-.289.239-.417.334a3.5 3.5 0 01-1.907.748c-1.026.095-1.971-.08-2.853-.637C.841 22.543.264 21.573.071 20.364c-.16-1.019-.064-2.005.433-2.912.69-1.304 1.779-2.1 3.27-2.322.785-.112 1.538-.048 2.275.286zm34.937-.096c.129 0 .16.032.16.16.017.906.017 1.83.017 2.736 0 .875.016 1.766-.016 2.64-.032 1.13-.545 2.005-1.555 2.562-.609.334-1.282.493-1.971.589a9.227 9.227 0 01-1.619.048c-.994-.032-1.955-.207-2.805-.748-.817-.51-1.282-1.241-1.378-2.196-.032-.238-.032-.461-.032-.684v-4.932c0-.143.032-.175.176-.175.93.016 1.86.016 2.805 0 .144 0 .176.032.176.175l-.016 4.63c0 .255.032.493.129.732.176.413.512.636.945.716.385.08.77.08 1.138-.048.513-.175.785-.557.85-1.082.031-.238.031-.461.031-.7v-4.248c0-.143.033-.175.16-.175.93.016 1.86.016 2.805 0zm-24.152-.302c1.122 0 2.052.16 2.917.605 1.186.636 2.035 1.575 2.34 2.927.465 2.036-.529 4.01-2.452 4.916a5.926 5.926 0 01-2.148.525c-.801.048-1.586.016-2.356-.191-1.41-.382-2.5-1.177-3.109-2.514-.673-1.495-.497-3.325.753-4.645.786-.827 1.731-1.289 2.853-1.496.433-.095.898-.143 1.202-.127zm73.963.27c1.539.43 2.469 1.496 2.885 3.007.16.541.177 1.082.16 1.64 0 .11-.08.11-.16.11-.993.016-2.02.016-3.045.016h-3.077c-.176 0-.192.016-.176.191.032.175.032.35.08.51.144.524.465.89.994 1.05.464.143.93.174 1.394.031.336-.111.609-.302.817-.588a.256.256 0 01.225-.128c.897.016 1.795.016 2.692 0 .144 0 .16.048.112.175-.48 1.384-1.474 2.18-2.885 2.53a5.869 5.869 0 01-1.394.159c-.817.016-1.619-.048-2.372-.35-1.506-.573-2.452-1.623-2.74-3.198-.225-1.209-.048-2.354.609-3.42a3.832 3.832 0 012.147-1.655 6.358 6.358 0 013.734-.08zm-28.896-5.154c.93.016 1.86.016 2.805 0 .112 0 .16.032.16.16v13.251c0 .112-.032.16-.16.144H61.87c-.128 0-.16-.032-.16-.16-.032-.222-.032-.445-.032-.684a4.434 4.434 0 01-.593.51c-.48.35-1.01.525-1.587.588-.897.112-1.747-.032-2.548-.477-1.266-.684-2.067-1.702-2.292-3.134-.192-1.162-.048-2.291.625-3.31.737-1.081 1.747-1.733 3.061-1.924.962-.143 1.86.016 2.709.509.224.143.417.318.625.493.048-.064.032-.111.032-.175v-5.6c0-.16.032-.207.192-.19zm19.745 5.839c.385.35.61.795.69 1.304a7.3 7.3 0 01.095 1.018c0 1.735 0 3.485.017 5.219 0 .159-.049.19-.193.19a85.383 85.383 0 00-2.772 0c-.145 0-.177-.031-.177-.174.016-1.369.016-2.737 0-4.105 0-.334-.016-.652-.096-.97-.272-1.13-1.554-1.13-2.115-.605-.353.334-.465.748-.53 1.193-.031.382-.031.78-.031 1.162v3.356c0 .112-.016.16-.16.16a82.902 82.902 0 00-2.821 0c-.129 0-.16-.032-.16-.16V19.41c0-.286-.017-.573-.065-.843-.112-.525-.416-.843-.93-.97a1.37 1.37 0 00-1.522.572c-.192.302-.24.637-.24.97-.016 1.464-.016 2.928-.016 4.392 0 .159-.032.19-.193.19a85.383 85.383 0 00-2.772 0c-.128 0-.16-.031-.16-.159V15.48c0-.128.032-.16.16-.16.93.016 1.859.016 2.805 0 .128 0 .16.032.16.16.016.286.032.556.032.875.256-.223.497-.43.77-.605.768-.477 1.602-.62 2.5-.54.416.047.817.126 1.201.301.545.239.962.637 1.298 1.13.049.08.08.095.145 0 .577-.843 1.394-1.305 2.388-1.432.993-.127 1.923.08 2.692.764zm-51.734-5.6c.128.047.176.111.176.254-.016.732 0 1.464 0 2.196 0 .207 0 .222-.192.127-.337-.175-.673-.27-1.042-.239-.513.032-.865.382-.913.875-.048.541-.016 1.066-.032 1.607 0 .112.032.143.144.143.625-.016 1.25 0 1.875-.016.112 0 .16.032.16.16a47.308 47.308 0 000 2.131c0 .128-.032.175-.176.175-.61-.016-1.202 0-1.795 0-.2 0-.209-.025-.209.137v5.575c0 .18 0 .203-.139.206h-2.857c-.129 0-.16-.031-.16-.159V17.93c0-.128-.033-.175-.16-.16-.273.016-.546 0-.834.016-.096 0-.112-.031-.112-.127v-2.211c0-.096.032-.128.128-.128.272.016.545-.015.817.016.144.016.176-.047.176-.175a12.91 12.91 0 010-1.113c.032-.764.16-1.512.593-2.164.577-.875 1.395-1.416 2.436-1.654.722-.16 1.427-.128 2.116.143zm20.658 4.995c.994.398 1.587 1.114 1.78 2.164.047.286.063.573.063.859v5.123c0 .143-.032.175-.176.175a80.974 80.974 0 00-2.788 0c-.16 0-.177-.048-.177-.191.016-1.4.016-2.816 0-4.216 0-.287-.032-.589-.096-.875-.096-.493-.417-.796-.897-.907-.642-.143-1.202 0-1.651.493-.225.239-.289.541-.32.843-.049.366-.017.716-.017 1.082v3.596c0 .127-.032.159-.16.159a82.843 82.843 0 00-2.82 0c-.129 0-.161-.032-.161-.16V15.48c0-.144.032-.175.176-.175.93.015 1.86.015 2.805 0 .128 0 .176.031.16.159v.89c.24-.27.465-.493.737-.684.45-.318.962-.46 1.507-.525.705-.08 1.378-.031 2.035.223zm-33.656 2.196c-.16 0-.304.016-.464.031-1.138.223-2.004 1.528-1.395 2.753.433.827 1.298 1.24 2.276 1.066a1.964 1.964 0 001.57-2.355c-.16-.764-.977-1.543-1.987-1.495zm-11.667-.048c-1.218 0-1.971 1.002-1.987 1.957-.016 1.002.865 1.957 1.97 1.94 1.059.032 2.004-.843 2.004-1.94 0-1.066-.85-1.957-1.987-1.957zm53.481.398c-.77.493-.978 1.193-.865 1.909.144.89.977 1.622 1.939 1.559.112 0 .224.016.336 0 1.138-.143 1.908-1.305 1.57-2.402-.4-1.273-1.922-1.735-2.98-1.066zm30.323-.955c-.802.032-1.395.541-1.571 1.305-.032.111.016.127.112.127h3.237c.065 0 .145.016.113-.096-.113-.43-.305-.795-.673-1.05-.37-.27-.786-.302-1.218-.286zM79.82 8.29c3.061 0 5.417.556 7.18 1.431 1.378.685 2.42 1.56 3.157 2.53H69.531l.016-.016h-.032c1.747-2.34 5.177-3.945 10.305-3.945zm15.754-5.887c.69.812.32 1.687.097 1.973l-.193.19c-.721.526-5.144 3.771-5.801 4.17-.564.34-1.577.42-2.416.041a2.306 2.306 0 01-.726-.487c-.384-.382-.432-.748-.384-1.178.064-.477.4-.843.769-1.161l5.225-3.755c.121-.084.26-.15.405-.212l.124-.058a2.57 2.57 0 011.071-.22c.706-.003 1.435.234 1.83.697zm-29.198-.824l.19.006c.317.021.622.092.882.214.176.08.368.143.528.27l5.225 3.755c.369.318.705.684.77 1.161.047.43 0 .796-.385 1.177-.456.46-1.098.679-1.709.72l-.182.007c-.482.004-.93-.1-1.234-.281-.674-.414-5.097-3.643-5.802-4.168l-.192-.191c-.225-.303-.593-1.162.096-1.973.383-.463 1.11-.7 1.813-.697zM80.125 0l.17.003c1.234.05 2.202.642 2.202 1.89v.096l-.048 3.388c0 .128-.017.27-.049.398-.256.923-1.186 1.432-2.307 1.432-1.154 0-2.116-.446-2.34-1.416a3.085 3.085 0 01-.032-.398V1.99C77.737.7 78.81 0 80.125 0z"/></svg>