<svg xmlns="http://www.w3.org/2000/svg" width="65" height="48" viewBox="0 0 65 48">
    <g fill="none">
        <path fill="#00A6FF" d="M46.992 12.506c0 6.205-5.024 11.235-11.22 11.235-.573 0-1.136-.043-1.685-.126l.004-.001c.138-.038.272-.088.401-.145 1.136-.496 1.918-1.63 1.918-2.947 0-.89-.36-1.693-.942-2.277-.581-.58-1.384-.941-2.272-.941h-7.572c-.688-1.455-1.072-3.082-1.072-4.798 0-.11 0-.219.005-.328l.001-.016c.003-.167.012-.331.025-.495.118-1.716.653-3.414 1.535-4.89.25-.42.527-.82.826-1.207.125-.16.256-.316.39-.468 2.056-2.349 5.073-3.83 8.438-3.83 6.197 0 11.22 5.03 11.22 11.234z"/>
        <path fill="#00A6FF" d="M56.211 26.616h-9.175l-10.128 4.198c-1.771.734-2.606 2.773-1.859 4.541l.035.081c.753 1.782 2.764 2.637 4.551 1.947 2.874-1.11 6.643-2.561 6.643-2.561l-9.705 3.736c-2.046.788-4.281.947-6.42.456l-9.942-2.279c-1.822-.418-3.63.745-4.011 2.577-.364 1.75.714 3.477 2.445 3.918l11.863 3.019c2.237.57 4.596.421 6.744-.422l15.311-6.014h3.648V26.616z" opacity=".2"/>
        <path fill="#00A6FF" d="M56.211 24.271L63.73 24.271 63.73 41.754 56.211 41.754z" opacity=".5"/>
        <path fill="#00A6FF" d="M1.27 7.589L8.789 7.589 8.789 25.072 1.27 25.072z"/>
        <path fill="#00A6FF" d="M36.41 20.523c0 1.317-.782 2.45-1.918 2.946-.13.057-.263.107-.401.145-.283.083-.584.126-.895.126H8.789V9.32h1.621c.742 0 1.473-.177 2.132-.515l8.28-5.41c1.587-.815 3.498-.655 4.928.414l1.642 1.227c-1.7 1.91-2.758 4.402-2.835 7.143h-.76c-.707 0-1.348.287-1.81.75-.463.464-.75 1.104-.75 1.812 0 1.416 1.146 2.563 2.56 2.563h9.399c.888 0 1.69.361 2.272.942.582.583.942 1.387.942 2.277z" opacity=".2"/>
        <path fill="#FFD4BE" d="M24.558 12.162c.003-.167.012-.331.025-.495-.013.164-.022.33-.025.495z"/>
        <path fill="#2B0392" d="M63.73 23h-7.519c-.7 0-1.27.57-1.27 1.271v1.074h-7.905c-.167 0-.332.033-.486.097L36.423 29.64c-1.172.486-2.083 1.4-2.563 2.576-.481 1.175-.474 2.466.02 3.636l.035.08c.293.695.726 1.285 1.251 1.752-1.541.419-3.157.453-4.728.093l-9.943-2.28c-1.216-.279-2.465-.06-3.516.614-1.05.674-1.768 1.72-2.022 2.943-.503 2.423.98 4.8 3.375 5.41l11.864 3.018c1.004.256 2.023.383 3.038.383 1.522 0 3.036-.286 4.482-.854l15.088-5.925h2.138v.669c0 .702.569 1.271 1.27 1.271h7.518c.702 0 1.27-.569 1.27-1.271V24.271C65 23.57 64.432 23 63.73 23zM52.563 38.543c-.159 0-.316.03-.463.087l-15.311 6.013c-1.913.751-3.977.88-5.968.374l-11.863-3.02c-1.075-.273-1.741-1.339-1.515-2.426.114-.55.436-1.019.908-1.321.337-.217.72-.329 1.111-.329.155 0 .31.017.466.053l9.943 2.28c2.392.548 4.867.372 7.158-.51l2.885-1.11c.06-.021.119-.043.178-.066 2.55-.985 5.806-2.238 6.505-2.508l.137-.052c.654-.252.98-.988.73-1.643-.252-.655-.987-.982-1.642-.73l-.148.057-6.617 2.548c-1.122.364-2.335-.19-2.804-1.3l-.035-.08c-.228-.54-.231-1.138-.01-1.681.223-.543.644-.966 1.186-1.19l9.894-4.101h7.654v10.655h-2.379zm9.898 1.94h-4.98v-14.94h4.98v14.94zM12.363 22.469H10.06V10.59h.351c.939 0 1.876-.226 2.71-.655.04-.02.079-.042.115-.066l8.222-5.372c1.136-.558 2.517-.43 3.533.33l.594.443-.106.154c-.157.229-.308.462-.45.7-.877 1.468-1.441 3.12-1.648 4.805-.866.093-1.667.475-2.29 1.1-.723.723-1.122 1.686-1.122 2.711 0 2.114 1.718 3.834 3.83 3.834h9.398c.518 0 1.007.203 1.373.569.368.37.571.859.572 1.378 0 .776-.455 1.475-1.161 1.783-.082.037-.156.063-.225.083l-.02.006c-.17.05-.352.075-.54.075H22.518c-.7 0-1.27.569-1.27 1.27 0 .703.57 1.272 1.27 1.272h10.679c.328 0 .65-.036.965-.105.533.069 1.073.106 1.61.106 6.887 0 12.49-5.61 12.49-12.506S42.659 0 35.772 0c-3.173 0-6.21 1.21-8.509 3.353l-.753-.562c-1.803-1.35-4.263-1.557-6.266-.527-.04.02-.077.042-.114.066l-8.22 5.37c-.465.229-.982.348-1.499.348h-.352v-.46c0-.702-.568-1.27-1.27-1.27H1.27c-.702 0-1.27.568-1.27 1.27v17.483c0 .702.568 1.271 1.27 1.271h7.519c.7 0 1.27-.569 1.27-1.27v-.06h2.304c.7 0 1.27-.57 1.27-1.272 0-.702-.57-1.271-1.27-1.271zm10.144-7.728c0-.345.134-.67.378-.913.127-.127.276-.224.439-.288.069.85.223 1.682.461 2.492-.705-.006-1.278-.583-1.278-1.29zm23.215-2.235c0 4.976-3.662 9.113-8.43 9.848.254-.574.388-1.204.388-1.832 0-.77-.194-1.51-.557-2.168-.953-1.695-2.307-2.322-4.924-2.322h-5.737c-.426-1.12-.64-2.304-.64-3.526 0-1.862.528-3.727 1.525-5.301.287-.453.606-.884.96-1.286 1.89-2.146 4.608-3.377 7.465-3.377 5.486 0 9.95 4.47 9.95 9.964zm-9.749-6.318c-.757 0-1.438.15-2.036.45-.606.305-1.078.73-1.407 1.272-.329.541-.493 1.157-.493 1.84l.004.155c.016.317.079.69.188 1.122l.056.21h.046c-.827 0-1.331.387-1.331 1.106 0 .402.164.716.493.874.215.102.492.156.836.168l.162.003h.323l.02.181c.004.046.006.085.006.115 0 .324-.075.656-.23 1-.152.341-.335.598-.547.776l-.234.203c-.18.16-.324.296-.432.41-.16.167-.282.322-.364.467-.096.168 3.097 1.158 3.267 1.158.18 0 .333.01.455.027.092.013.171.028.236.045l.245.072.042.011.667.15c1.178.26 1.903.389 2.217.389.59 0 1.147-.124 1.67-.371.592-.281.918-.723.918-1.293 0-.342-.126-.647-.37-.896-.244-.25-.54-.383-.87-.383-.14 0-.363.055-.735.171-.297.093-.57.138-.818.138l-.13-.005c-.131-.007-.315-.024-.55-.05l-.476-.059c-.62-.08-1.107-.12-1.464-.12l-.19.003c-.125.004-.245.011-.36.023l-.217.025.077-.098c.208-.277.374-.529.497-.756l.09-.182c.143-.307.234-.632.274-.973l.015-.178h.98c.328 0 .61-.094.833-.285.234-.202.355-.475.355-.79 0-.45-.198-.789-.583-.93-.237-.086-.538-.132-.906-.143l-.178-.003h-.86l-.11-.378c-.053-.182-.093-.333-.123-.453-.053-.22-.08-.458-.08-.716 0-.381.109-.675.326-.903.213-.224.49-.334.857-.334.337 0 .586.09.768.268.202.197.374.527.504.993.208.697.67 1.082 1.333 1.082.375 0 .704-.133.965-.394.26-.258.396-.569.396-.915 0-.789-.333-1.526-.98-2.198-.386-.394-.828-.678-1.328-.85-.486-.168-1.059-.25-1.719-.25zM7.52 23.8h-4.98V8.86h4.98V23.8zm10.939-.765c-.298-.456-.882-.666-1.404-.517-.503.145-.87.597-.916 1.12-.046.527.26 1.042.741 1.26.477.215 1.05.112 1.422-.258.423-.423.488-1.108.157-1.605z"/>
    </g>
</svg>
