<svg xmlns="http://www.w3.org/2000/svg" width="394" height="184" viewBox="0 0 394 184">
    <path fill="#1D2433" d="M14.69 66c.534 0 .89-.104 1.068-.312.178-.207.297-.548.356-1.023l1.78-24.386h15.842l-.801 11.214c-.237 3.323-.356 5.637-.356 6.942 0 2.433.712 4.302 2.136 5.607C36.139 65.347 38.512 66 41.835 66h4.895c.534 0 .89-.104 1.068-.312.178-.207.297-.548.356-1.023.06-.356.148-1.35.267-2.982l.445-6.096c.178-2.433.37-5.147.579-8.144.207-2.996.415-6.066.622-9.211.208-3.145.416-6.215.623-9.212.208-2.996.401-5.71.579-8.143.178-2.433.312-4.45.4-6.052.09-1.602.134-2.551.134-2.848 0-3.026-.623-5.31-1.869-6.853-1.246-1.543-3.679-2.314-7.298-2.314h-4.895c-.95 0-1.424.445-1.424 1.335 0 .712-.045 1.825-.134 3.337-.089 1.513-.207 3.308-.355 5.385-.149 2.077-.327 4.361-.535 6.853-.207 2.492-.4 5.043-.578 7.654H18.784c.297-4.035.534-7.49.712-10.368.178-2.878.267-4.554.267-5.029 0-3.026-.623-5.31-1.869-6.853-1.246-1.543-3.679-2.314-7.298-2.314H5.701c-.95 0-1.424.445-1.424 1.335 0 1.009-.089 2.878-.267 5.607-.178 2.73-.415 5.904-.712 9.523-.297 3.62-.593 7.476-.89 11.57-.297 4.094-.593 7.98-.89 11.659-.297 3.679-.534 6.957-.712 9.835-.178 2.877-.267 4.91-.267 6.096 0 2.433.712 4.302 2.136 5.607C4.099 65.347 6.472 66 9.795 66h4.895zm62.259.89c1.958 0 3.975-.178 6.052-.534 2.077-.356 3.96-.92 5.651-1.691 1.692-.771 3.071-1.78 4.139-3.026 1.068-1.246 1.602-2.73 1.602-4.45 0-1.305-.297-2.373-.89-3.204-.593-.83-1.276-1.483-2.047-1.958-.771-.475-1.528-.786-2.27-.935-.741-.148-1.26-.222-1.557-.222-.653 0-1.172.252-1.558.757-.385.504-.845 1.068-1.379 1.69-.534.623-1.231 1.187-2.091 1.692-.86.504-2.062.756-3.605.756-1.543 0-2.848-.267-3.916-.801s-1.928-1.216-2.581-2.047c-.653-.83-1.142-1.795-1.469-2.893-.326-1.097-.489-2.21-.489-3.337.95 0 2.3-.045 4.05-.134 1.75-.089 3.663-.326 5.74-.712 2.077-.385 4.183-.934 6.319-1.646 2.136-.712 4.08-1.706 5.83-2.981 1.75-1.276 3.174-2.863 4.271-4.762 1.098-1.899 1.647-4.213 1.647-6.942 0-1.84-.297-3.56-.89-5.162-.593-1.602-1.543-3.011-2.848-4.228-1.305-1.216-3.026-2.18-5.162-2.892-2.136-.712-4.747-1.068-7.832-1.068-3.857 0-7.18.534-9.968 1.602-2.789 1.068-5.162 2.462-7.12 4.183-1.958 1.72-3.545 3.664-4.761 5.83-1.217 2.165-2.166 4.346-2.848 6.541-.683 2.195-1.143 4.331-1.38 6.408-.237 2.077-.356 3.857-.356 5.34 0 4.035.653 7.387 1.958 10.057 1.305 2.67 2.981 4.806 5.028 6.408 2.047 1.602 4.361 2.73 6.942 3.382 2.582.653 5.177.979 7.788.979zm-6.141-27.323c.178-1.246.43-2.551.757-3.916.326-1.365.8-2.61 1.423-3.738.624-1.127 1.395-2.062 2.315-2.804.92-.741 2.032-1.112 3.337-1.112 1.543 0 2.685.475 3.426 1.424.742.95 1.113 2.017 1.113 3.204 0 2.195-1.142 3.886-3.427 5.073-2.284 1.187-5.265 1.81-8.944 1.869zm40.454 27.234c2.077 0 3.782-.311 5.118-.935 1.334-.623 2.388-1.453 3.159-2.491.771-1.039 1.305-2.196 1.602-3.471.297-1.276.445-2.567.445-3.872 0-.297-.282-.49-.846-.578-.563-.09-1.171-.267-1.824-.534-.653-.268-1.26-.727-1.825-1.38-.563-.653-.845-1.75-.845-3.293 0-1.127.074-2.789.223-4.984.148-2.195.34-4.673.578-7.431.237-2.76.475-5.652.712-8.678.237-3.026.475-5.933.712-8.722.237-2.789.43-5.295.578-7.52.149-2.226.223-3.931.223-5.118 0-1.009-.148-1.973-.445-2.893-.297-.92-.801-1.735-1.513-2.447-.712-.712-1.661-1.276-2.848-1.691-1.187-.415-2.67-.623-4.45-.623h-3.471c-.771 0-1.246.089-1.424.267-.237.237-.386 1.009-.445 2.314-.356 6.349-.697 11.926-1.023 16.732-.327 4.806-.623 8.989-.89 12.549-.268 3.56-.52 6.586-.757 9.078-.237 2.492-.43 4.584-.578 6.274-.149 1.692-.267 3.071-.357 4.139-.089 1.068-.133 1.958-.133 2.67 0 4.51.801 7.743 2.403 9.701 1.602 1.958 4.242 2.937 7.921 2.937zm24.968 15.664c.771 0 1.276-.119 1.513-.356.237-.237.386-.712.445-1.424.237-2.73.415-4.865.534-6.408.119-1.543.222-2.759.311-3.649.09-.89.149-1.602.179-2.136s.074-1.142.133-1.824c.06-.683.148-1.588.267-2.715.119-1.127.267-2.759.445-4.895 1.009 2.492 2.403 4.42 4.183 5.785 1.78 1.365 4.242 2.047 7.387 2.047 2.967 0 5.726-.653 8.277-1.958 2.551-1.305 4.776-3.219 6.675-5.74 1.899-2.522 3.382-5.593 4.45-9.212 1.068-3.62 1.602-7.743 1.602-12.371 0-7.417-1.41-12.846-4.227-16.287-2.819-3.441-7.017-5.162-12.594-5.162-3.204 0-5.889.593-8.054 1.78-2.166 1.187-3.931 3.145-5.296 5.874 0-1.84-.727-3.427-2.18-4.761-1.454-1.335-3.783-2.003-6.987-2.003h-3.471c-.771 0-1.246.089-1.424.267-.237.237-.386 1.009-.445 2.314-.119 1.127-.282 3.174-.49 6.141-.207 2.967-.46 6.364-.756 10.19l-.934 12.06c-.327 4.213-.624 8.144-.89 11.793-.267 3.649-.49 6.778-.668 9.389-.178 2.61-.267 4.213-.267 4.806 0 1.365.134 2.566.4 3.605.267 1.038.742 1.913 1.425 2.625.682.712 1.602 1.26 2.758 1.647 1.157.385 2.656.578 4.495.578h3.204zm11.392-27.412c-1.424 0-2.596-.356-3.516-1.068-.92-.712-1.646-1.661-2.18-2.848-.534-1.187-.905-2.522-1.112-4.005-.208-1.483-.312-2.996-.312-4.539 0-4.51.712-8.07 2.136-10.68 1.424-2.61 3.649-3.916 6.675-3.916 1.483 0 2.7.326 3.649.979.95.653 1.691 1.513 2.225 2.581s.905 2.3 1.112 3.693c.208 1.395.312 2.834.312 4.317 0 5.34-.86 9.256-2.581 11.748-1.72 2.492-3.857 3.738-6.408 3.738zm60.26 11.837c4.331 0 7.387-.95 9.167-2.848 1.78-1.899 2.67-4.48 2.67-7.743 0-1.72-.178-2.818-.534-3.293-.356-.475-.742-.712-1.157-.712-.415 0-.786.119-1.112.356-.327.237-.698.504-1.113.801-.415.297-.86.564-1.335.801-.475.237-1.038.356-1.691.356-.83 0-1.424-.252-1.78-.757-.356-.504-.534-1.527-.534-3.07 0-.83.044-2.017.133-3.56.09-1.543.223-3.293.401-5.251.178-1.958.37-4.035.578-6.23.208-2.195.401-4.42.579-6.675h4.717c2.67 0 4.435-.549 5.295-1.647.86-1.097 1.35-2.536 1.469-4.316l.356-4.806c0-.83-.475-1.246-1.424-1.246h-9.345c.178-2.314.267-4.064.267-5.251 0-2.136-.475-3.975-1.424-5.518-.95-1.543-2.67-2.314-5.162-2.314h-2.581c-.415 0-.875.475-1.38 1.424-.504.95-1.023 2.121-1.557 3.515-.534 1.395-1.068 2.834-1.602 4.317s-1.009 2.759-1.424 3.827c-1.365 0-2.462.178-3.293.534-.83.356-1.469.83-1.913 1.424-.445.593-.742 1.26-.89 2.003-.149.741-.253 1.498-.312 2.269l-.267 4.539c0 .415.044.727.133.935.09.207.371.311.846.311h4.717c-.297 4.213-.578 7.743-.845 10.591-.267 2.848-.49 5.251-.668 7.209-.178 1.958-.311 3.545-.4 4.762-.09 1.216-.134 2.269-.134 3.159 0 4.094 1.024 7.135 3.07 9.123 2.047 1.987 5.207 2.981 9.479 2.981zm30.041-.89c.771 0 1.29-.119 1.558-.356.267-.237.4-.712.4-1.424 0-.415.074-1.528.222-3.338.149-1.81.312-3.856.49-6.14.178-2.285.356-4.54.534-6.764.178-2.226.326-3.961.445-5.207.297-4.45 1.32-8.01 3.07-10.68 1.75-2.67 4.05-4.005 6.898-4.005 2.136 0 3.575.608 4.316 1.825.742 1.216 1.113 2.595 1.113 4.138 0 .712-.06 1.84-.178 3.382-.119 1.543-.252 3.293-.4 5.251-.149 1.958-.327 4.005-.535 6.141-.207 2.136-.4 4.183-.578 6.141-.06.475-.104.979-.133 1.513-.03.534-.045 1.098-.045 1.691 0 1.246.133 2.358.4 3.337.267.98.727 1.795 1.38 2.448.653.653 1.572 1.157 2.759 1.513 1.187.356 2.73.534 4.628.534h2.848c.534 0 .95-.03 1.246-.089.297-.06.52-.178.668-.356.148-.178.252-.445.311-.801.06-.356.119-.86.178-1.513.178-2.67.4-5.622.668-8.856.267-3.233.534-6.333.8-9.3.267-2.967.49-5.607.668-7.921.178-2.314.267-3.946.267-4.895 0-3.026-.297-5.562-.89-7.61-.593-2.046-1.498-3.708-2.714-4.983-1.217-1.276-2.745-2.181-4.584-2.715-1.84-.534-4.005-.801-6.497-.801-3.323 0-6.067.564-8.233 1.691-2.165 1.127-4.138 3.174-5.918 6.141.297-3.916.549-7.328.756-10.235.208-2.907.312-4.895.312-5.963 0-1.009-.148-1.973-.445-2.893-.297-.92-.801-1.735-1.513-2.447-.712-.712-1.661-1.276-2.848-1.691-1.187-.415-2.67-.623-4.45-.623h-3.471c-.771 0-1.246.089-1.424.267-.237.237-.386 1.009-.445 2.314-.534 9.493-1.038 17.444-1.513 23.852-.475 6.408-.89 11.674-1.246 15.797-.356 4.124-.638 7.358-.846 9.702-.207 2.343-.311 4.168-.311 5.473 0 1.365.133 2.566.4 3.604.267 1.039.742 1.914 1.425 2.626.682.712 1.601 1.26 2.758 1.646 1.158.386 2.656.579 4.495.579h3.204zm59.678.89c1.958 0 3.975-.178 6.052-.534 2.077-.356 3.96-.92 5.651-1.691 1.692-.771 3.071-1.78 4.139-3.026 1.068-1.246 1.602-2.73 1.602-4.45 0-1.305-.297-2.373-.89-3.204-.593-.83-1.276-1.483-2.047-1.958-.771-.475-1.528-.786-2.27-.935-.741-.148-1.26-.222-1.557-.222-.653 0-1.172.252-1.558.757-.385.504-.845 1.068-1.379 1.69-.534.623-1.231 1.187-2.091 1.692-.86.504-2.062.756-3.605.756-1.543 0-2.848-.267-3.916-.801s-1.928-1.216-2.581-2.047c-.653-.83-1.142-1.795-1.469-2.893-.326-1.097-.489-2.21-.489-3.337.95 0 2.3-.045 4.05-.134 1.75-.089 3.663-.326 5.74-.712 2.077-.385 4.183-.934 6.319-1.646 2.136-.712 4.08-1.706 5.83-2.981 1.75-1.276 3.174-2.863 4.272-4.762 1.097-1.899 1.646-4.213 1.646-6.942 0-1.84-.297-3.56-.89-5.162-.593-1.602-1.543-3.011-2.848-4.228-1.305-1.216-3.026-2.18-5.162-2.892-2.136-.712-4.747-1.068-7.832-1.068-3.857 0-7.18.534-9.968 1.602-2.789 1.068-5.162 2.462-7.12 4.183-1.958 1.72-3.545 3.664-4.762 5.83-1.216 2.165-2.165 4.346-2.848 6.541-.682 2.195-1.142 4.331-1.379 6.408-.237 2.077-.356 3.857-.356 5.34 0 4.035.653 7.387 1.958 10.057 1.305 2.67 2.981 4.806 5.029 6.408 2.046 1.602 4.36 2.73 6.941 3.382 2.582.653 5.177.979 7.788.979zm-6.141-27.323c.178-1.246.43-2.551.757-3.916.326-1.365.8-2.61 1.423-3.738.624-1.127 1.395-2.062 2.315-2.804.92-.741 2.032-1.112 3.337-1.112 1.543 0 2.685.475 3.427 1.424.741.95 1.112 2.017 1.112 3.204 0 2.195-1.142 3.886-3.427 5.073-2.284 1.187-5.265 1.81-8.944 1.869zM333.872 66c.771 0 1.276-.119 1.513-.356.237-.237.386-.712.445-1.424.119-1.84.297-3.99.534-6.453.237-2.462.445-5.058.623-7.787.178-2.907.49-5.696.934-8.366.445-2.67 1.039-4.999 1.78-6.986.742-1.988 1.677-3.575 2.804-4.762 1.127-1.187 2.492-1.78 4.094-1.78 1.78 0 2.981.593 3.605 1.78.623 1.187.934 2.551.934 4.094 0 1.009-.104 2.625-.311 4.85-.208 2.226-.416 4.57-.623 7.031-.208 2.463-.416 4.836-.624 7.12-.207 2.285-.311 4.02-.311 5.207 0 1.246.133 2.358.4 3.337.268.98.727 1.795 1.38 2.448.653.653 1.572 1.157 2.759 1.513 1.187.356 2.73.534 4.628.534h2.848c.534 0 .95-.03 1.246-.089.297-.06.52-.178.668-.356.148-.178.252-.445.311-.801.06-.356.119-.86.178-1.513.237-3.56.445-6.527.623-8.9s.326-4.48.445-6.319c.178-2.848.504-5.488.979-7.921s1.098-4.539 1.869-6.319c.771-1.78 1.72-3.174 2.848-4.183 1.127-1.009 2.462-1.513 4.005-1.513 1.78 0 2.981.593 3.604 1.78.623 1.187.935 2.551.935 4.094 0 .356-.045 1.098-.134 2.225-.089 1.127-.207 2.447-.356 3.96-.148 1.514-.296 3.16-.445 4.94-.148 1.78-.296 3.5-.445 5.162-.148 1.661-.267 3.204-.356 4.628-.089 1.424-.133 2.522-.133 3.293 0 1.246.134 2.358.4 3.337.267.98.727 1.795 1.38 2.448.653.653 1.572 1.157 2.759 1.513 1.187.356 2.73.534 4.628.534h2.848c.534 0 .95-.03 1.246-.089.297-.06.52-.178.668-.356.148-.178.252-.445.311-.801.06-.356.119-.86.178-1.513.178-3.026.415-6.186.712-9.479.297-3.293.564-6.497.801-9.611.237-3.115.445-6.008.623-8.678.178-2.67.267-4.925.267-6.764 0-2.433-.37-4.465-1.113-6.096-.741-1.632-1.735-2.923-2.981-3.872-1.246-.95-2.714-1.617-4.406-2.003-1.69-.385-3.456-.578-5.295-.578-3.323 0-6.082.667-8.277 2.002-2.195 1.336-4.213 3.724-6.052 7.165-.356-1.78-.95-3.249-1.78-4.405-.83-1.158-1.84-2.092-3.026-2.804-1.187-.712-2.522-1.216-4.005-1.513-1.483-.297-3.026-.445-4.628-.445-2.967 0-5.548.564-7.743 1.691-2.195 1.127-4.153 3.293-5.874 6.497-.06-.95-.237-1.869-.534-2.759-.297-.89-.801-1.661-1.513-2.314-.712-.653-1.632-1.187-2.759-1.602-1.127-.415-2.581-.623-4.361-.623h-3.471c-.771 0-1.246.089-1.424.267-.237.237-.386 1.009-.445 2.314-.475 6.527-.875 12-1.202 16.42-.326 4.42-.608 8.07-.845 10.947-.237 2.878-.4 5.133-.49 6.764-.089 1.632-.133 2.893-.133 3.783 0 1.365.134 2.566.4 3.604.267 1.039.742 1.914 1.424 2.626.683.712 1.603 1.26 2.76 1.646 1.156.386 2.655.579 4.494.579h3.204zM14.69 167c.534 0 .89-.104 1.068-.312.178-.207.297-.548.356-1.023l1.78-24.386h15.842l-.801 11.214c-.237 3.323-.356 5.637-.356 6.942 0 2.433.712 4.302 2.136 5.607 1.424 1.305 3.797 1.958 7.12 1.958h4.895c.534 0 .89-.104 1.068-.312.178-.207.297-.548.356-1.023.06-.356.148-1.35.267-2.982l.445-6.096c.178-2.433.37-5.147.579-8.144.207-2.996.415-6.066.622-9.211.208-3.145.416-6.215.623-9.211.208-2.997.401-5.711.579-8.144.178-2.433.312-4.45.4-6.052.09-1.602.134-2.551.134-2.848 0-3.026-.623-5.31-1.869-6.853-1.246-1.543-3.679-2.314-7.298-2.314h-4.895c-.95 0-1.424.445-1.424 1.335 0 .712-.045 1.824-.134 3.338-.089 1.512-.207 3.307-.355 5.384-.149 2.077-.327 4.361-.535 6.853-.207 2.492-.4 5.043-.578 7.654H18.784c.297-4.035.534-7.49.712-10.369.178-2.877.267-4.553.267-5.028 0-3.026-.623-5.31-1.869-6.853-1.246-1.543-3.679-2.314-7.298-2.314H5.701c-.95 0-1.424.445-1.424 1.335 0 1.009-.089 2.878-.267 5.607-.178 2.73-.415 5.904-.712 9.523-.297 3.62-.593 7.476-.89 11.57-.297 4.094-.593 7.98-.89 11.659-.297 3.679-.534 6.957-.712 9.835-.178 2.877-.267 4.91-.267 6.096 0 2.433.712 4.302 2.136 5.607C4.099 166.347 6.472 167 9.795 167h4.895zm62.259.89c1.958 0 3.975-.178 6.052-.534 2.077-.356 3.96-.92 5.651-1.691 1.692-.771 3.071-1.78 4.139-3.026 1.068-1.246 1.602-2.73 1.602-4.45 0-1.305-.297-2.373-.89-3.204-.593-.83-1.276-1.483-2.047-1.958-.771-.475-1.528-.786-2.27-.935-.741-.148-1.26-.222-1.557-.222-.653 0-1.172.252-1.558.757-.385.504-.845 1.067-1.379 1.69s-1.231 1.187-2.091 1.692c-.86.504-2.062.756-3.605.756-1.543 0-2.848-.267-3.916-.801s-1.928-1.216-2.581-2.047c-.653-.83-1.142-1.795-1.469-2.893-.326-1.097-.489-2.21-.489-3.337.95 0 2.3-.045 4.05-.134 1.75-.089 3.663-.326 5.74-.712 2.077-.385 4.183-.934 6.319-1.646 2.136-.712 4.08-1.706 5.83-2.981 1.75-1.276 3.174-2.863 4.271-4.762 1.098-1.899 1.647-4.213 1.647-6.942 0-1.84-.297-3.56-.89-5.162-.593-1.602-1.543-3.011-2.848-4.228-1.305-1.216-3.026-2.18-5.162-2.892-2.136-.712-4.747-1.068-7.832-1.068-3.857 0-7.18.534-9.968 1.602-2.789 1.068-5.162 2.462-7.12 4.183-1.958 1.72-3.545 3.664-4.761 5.83-1.217 2.165-2.166 4.346-2.848 6.541-.683 2.195-1.143 4.331-1.38 6.408-.237 2.077-.356 3.857-.356 5.34 0 4.035.653 7.387 1.958 10.057 1.305 2.67 2.981 4.806 5.028 6.408 2.047 1.602 4.361 2.73 6.942 3.382 2.582.653 5.177.979 7.788.979zm-6.141-27.323c.178-1.246.43-2.551.757-3.916.326-1.365.8-2.61 1.423-3.738.624-1.127 1.395-2.062 2.315-2.803.92-.742 2.032-1.113 3.337-1.113 1.543 0 2.685.475 3.426 1.424.742.95 1.113 2.017 1.113 3.204 0 2.195-1.142 3.886-3.427 5.073-2.284 1.187-5.265 1.81-8.944 1.869zm40.454 27.234c2.077 0 3.782-.311 5.118-.935 1.334-.623 2.388-1.453 3.159-2.492.771-1.038 1.305-2.195 1.602-3.47.297-1.276.445-2.567.445-3.872 0-.297-.282-.49-.846-.578-.563-.09-1.171-.267-1.824-.534-.653-.268-1.26-.727-1.825-1.38-.563-.653-.845-1.75-.845-3.293 0-1.127.074-2.789.223-4.984.148-2.195.34-4.672.578-7.431.237-2.76.475-5.652.712-8.678.237-3.026.475-5.933.712-8.722.237-2.789.43-5.295.578-7.52.149-2.225.223-3.931.223-5.118 0-1.009-.148-1.973-.445-2.892-.297-.92-.801-1.736-1.513-2.448-.712-.712-1.661-1.276-2.848-1.691-1.187-.415-2.67-.623-4.45-.623h-3.471c-.771 0-1.246.089-1.424.267-.237.237-.386 1.009-.445 2.314-.356 6.349-.697 11.926-1.023 16.732-.327 4.806-.623 8.989-.89 12.549-.268 3.56-.52 6.586-.757 9.078-.237 2.492-.43 4.583-.578 6.274-.149 1.691-.267 3.071-.357 4.139-.089 1.068-.133 1.958-.133 2.67 0 4.51.801 7.743 2.403 9.701 1.602 1.958 4.242 2.937 7.921 2.937zm24.968 15.664c.771 0 1.276-.119 1.513-.356.237-.237.386-.712.445-1.424.237-2.73.415-4.865.534-6.408.119-1.543.222-2.759.311-3.649.09-.89.149-1.602.179-2.136s.074-1.142.133-1.824c.06-.683.148-1.588.267-2.715.119-1.127.267-2.759.445-4.895 1.009 2.492 2.403 4.42 4.183 5.785 1.78 1.365 4.242 2.047 7.387 2.047 2.967 0 5.726-.653 8.277-1.958 2.551-1.305 4.776-3.219 6.675-5.74 1.899-2.522 3.382-5.593 4.45-9.212 1.068-3.62 1.602-7.743 1.602-12.371 0-7.417-1.41-12.846-4.227-16.287-2.819-3.441-7.017-5.162-12.594-5.162-3.204 0-5.889.593-8.054 1.78-2.166 1.187-3.931 3.145-5.296 5.874 0-1.84-.727-3.427-2.18-4.761-1.454-1.336-3.783-2.003-6.987-2.003h-3.471c-.771 0-1.246.089-1.424.267-.237.237-.386 1.009-.445 2.314-.119 1.127-.282 3.174-.49 6.141-.207 2.967-.46 6.363-.756 10.19l-.934 12.06c-.327 4.213-.624 8.144-.89 11.793-.267 3.649-.49 6.778-.668 9.389-.178 2.61-.267 4.213-.267 4.806 0 1.365.134 2.566.4 3.605.267 1.038.742 1.913 1.425 2.625.682.712 1.602 1.26 2.758 1.647 1.157.385 2.656.578 4.495.578h3.204zm11.392-27.412c-1.424 0-2.596-.356-3.516-1.068-.92-.712-1.646-1.661-2.18-2.848-.534-1.187-.905-2.522-1.112-4.005-.208-1.483-.312-2.996-.312-4.539 0-4.51.712-8.07 2.136-10.68 1.424-2.61 3.649-3.916 6.675-3.916 1.483 0 2.7.326 3.649.979.95.653 1.691 1.513 2.225 2.581s.905 2.3 1.112 3.694c.208 1.394.312 2.833.312 4.316 0 5.34-.86 9.256-2.581 11.748-1.72 2.492-3.857 3.738-6.408 3.738zm59.993 11.837c1.187 0 2.403-.133 3.649-.4s2.462-.713 3.649-1.336c1.187-.623 2.329-1.468 3.426-2.536 1.098-1.068 2.092-2.373 2.982-3.916.06.95.237 1.869.534 2.759.297.89.801 1.661 1.513 2.314.712.653 1.647 1.187 2.803 1.602 1.158.415 2.626.623 4.406.623h3.471c.83 0 1.32-.119 1.469-.356.148-.237.281-.979.4-2.225.475-6.527.875-12 1.201-16.42.327-4.42.609-8.07.846-10.948.237-2.877.4-5.132.49-6.763.089-1.632.133-2.893.133-3.783 0-1.365-.133-2.566-.4-3.604-.267-1.039-.742-1.914-1.425-2.626-.682-.712-1.601-1.26-2.759-1.647-1.156-.385-2.655-.578-4.494-.578h-3.204c-.653 0-1.127.178-1.424.534-.297.356-.475.771-.534 1.246-.178 1.84-.341 4.02-.49 6.542-.148 2.521-.326 5.117-.533 7.787-.208 2.67-.52 5.31-.935 7.921-.415 2.61-.964 4.94-1.647 6.987-.682 2.046-1.572 3.708-2.67 4.983-1.097 1.276-2.447 1.914-4.049 1.914-1.84 0-3.278-.579-4.316-1.736-1.039-1.156-1.558-2.773-1.558-4.85 0-.95.104-2.492.312-4.628.207-2.136.415-4.42.623-6.853.207-2.433.415-4.776.623-7.031.207-2.255.311-4.005.311-5.251 0-1.187-.133-2.24-.4-3.16-.267-.92-.742-1.705-1.425-2.358-.682-.653-1.616-1.157-2.803-1.513-1.187-.356-2.7-.534-4.539-.534h-2.848c-.83 0-1.424.193-1.78.578-.356.386-.593 1.113-.712 2.181-.06.712-.163 1.899-.311 3.56-.149 1.661-.297 3.59-.445 5.785-.149 2.195-.312 4.524-.49 6.986-.178 2.463-.341 4.792-.49 6.987-.148 2.195-.267 4.168-.356 5.918-.089 1.75-.133 3.012-.133 3.783 0 1.958.326 3.797.979 5.518.653 1.72 1.587 3.204 2.803 4.45 1.217 1.246 2.715 2.24 4.495 2.981 1.78.742 3.797 1.113 6.052 1.113zm52.113 0c6.052 0 10.591-1.365 13.617-4.094 3.026-2.73 4.539-6.23 4.539-10.502 0-2.67-.52-4.85-1.558-6.542-1.038-1.69-2.343-3.1-3.916-4.227-1.572-1.127-3.278-2.032-5.117-2.715-1.84-.682-3.545-1.35-5.118-2.002-1.572-.653-2.877-1.35-3.916-2.091-1.038-.742-1.557-1.736-1.557-2.982 0-1.187.504-2.18 1.513-2.982 1.009-.8 2.344-1.201 4.005-1.201 1.246 0 2.21.208 2.892.623.683.415 1.187.935 1.513 1.558.327.623.534 1.275.623 1.957.09.683.134 1.291.134 1.825 0 .475.148.801.445.979.297.178.86.267 1.691.267 3.085 0 5.444-.682 7.076-2.047 1.631-1.365 2.447-3.352 2.447-5.963 0-3.085-1.187-5.622-3.56-7.61-2.373-1.987-6.082-2.981-11.125-2.981-2.433 0-4.865.282-7.298.845-2.433.564-4.613 1.499-6.541 2.804-1.929 1.305-3.501 3.011-4.717 5.117-1.217 2.107-1.825 4.673-1.825 7.699 0 2.789.475 5.058 1.424 6.808.95 1.75 2.15 3.19 3.604 4.317 1.454 1.127 3.026 2.032 4.718 2.714 1.69.683 3.263 1.32 4.716 1.914 1.454.593 2.656 1.231 3.605 1.913.95.683 1.424 1.588 1.424 2.715 0 1.246-.579 2.047-1.736 2.403-1.156.356-2.477.534-3.96.534-1.958 0-3.53-.178-4.717-.534-1.187-.356-2.18-.727-2.981-1.113-.801-.385-1.499-.756-2.092-1.112-.593-.356-1.246-.534-1.958-.534-.89 0-1.647.252-2.27.756-.623.505-1.156 1.113-1.601 1.825-.446.712-.772 1.454-.98 2.225-.207.771-.311 1.424-.311 1.958 0 1.424.667 2.61 2.002 3.56 1.335.95 2.982 1.706 4.94 2.27 1.958.563 4.02.979 6.186 1.246 2.165.267 4.079.4 5.74.4z"/>
</svg>
