<svg width="178" height="27" xmlns="http://www.w3.org/2000/svg"><path d="M41.664.944v10.348h9.727V.944h5.125V27h-5.125V16.205h-9.727V27h-5.163V.944h5.163zm36.684 0v4.914H67.624v5.546h9.8v4.839h-9.8v5.844h10.91V27H62.52V.944h15.827zM119.505 0c7.424 0 13.379 5.897 13.379 13.5 0 7.566-5.955 13.5-13.38 13.5-7.424 0-13.341-5.934-13.341-13.5 0-7.603 5.917-13.5 13.342-13.5zM167.8 0c4.227 0 7.461 2.188 9.189 5.823l-4.264 2.484c-.919-1.965-2.315-3.337-4.925-3.337-2.132 0-3.381 1.112-3.381 2.596 0 1.595.992 2.448 4.888 3.635 4.08 1.298 8.417 2.67 8.417 7.973 0 4.859-3.86 7.826-9.336 7.826-5.256 0-8.71-2.56-10.107-6.416l4.337-2.56c.918 2.412 2.72 3.97 5.917 3.97 3.05 0 4.117-1.299 4.117-2.745 0-1.93-1.728-2.67-5.55-3.783-3.933-1.15-7.756-2.819-7.756-7.752 0-4.895 4.043-7.714 8.454-7.714zM93.886.52c4.742 0 8.564 3.857 8.564 8.604 0 3.263-2.021 6.193-4.962 7.566l5.697 9.79H97.71l-5.183-9.012h-3.859v9.013h-5.072V.519zm59.764 0v4.895h-10.659v5.526h9.74v4.821h-9.74v5.823h10.843v4.896H137.92V.519h15.731zM15 1.23c.752 0 1.362.616 1.362 1.375 0 .699-.517 1.275-1.186 1.362a1.37 1.37 0 011.186 1.362 1.37 1.37 0 01-1.186 1.361 1.37 1.37 0 011.186 1.363 1.37 1.37 0 01-1.186 1.362c.602.078 1.08.553 1.17 1.156A1.365 1.365 0 0117.69 9.4c.752 0 1.362.616 1.362 1.375a1.37 1.37 0 01-1.187 1.362 1.37 1.37 0 011.187 1.362c0 .7-.518 1.275-1.186 1.362a1.37 1.37 0 011.186 1.362c0 .76-.61 1.375-1.362 1.375a1.365 1.365 0 01-1.346-1.17 1.367 1.367 0 01-1.17 1.157 1.37 1.37 0 011.187 1.362c0 .699-.517 1.274-1.186 1.362a1.37 1.37 0 011.186 1.362 1.37 1.37 0 01-1.186 1.361 1.37 1.37 0 011.186 1.362c0 .76-.61 1.375-1.362 1.375a1.368 1.368 0 01-1.363-1.375c0-.699.518-1.274 1.187-1.362a1.37 1.37 0 01-1.187-1.361 1.37 1.37 0 011.187-1.362 1.37 1.37 0 01-1.187-1.362 1.37 1.37 0 011.187-1.362 1.37 1.37 0 01-1.187-1.362 1.37 1.37 0 011.187-1.362 1.37 1.37 0 01-1.187-1.362c0-.699.518-1.275 1.187-1.362a1.37 1.37 0 01-1.187-1.362 1.37 1.37 0 011.187-1.361 1.37 1.37 0 01-1.187-1.362c0-.7.518-1.275 1.187-1.363a1.37 1.37 0 01-1.187-1.361 1.37 1.37 0 011.187-1.362 1.37 1.37 0 01-1.187-1.362c0-.76.61-1.375 1.363-1.375zm-2.725 0c.752 0 1.362.616 1.362 1.375 0 .699-.517 1.274-1.186 1.362a1.37 1.37 0 011.186 1.362A1.37 1.37 0 0112.45 6.69a1.37 1.37 0 011.186 1.362 1.37 1.37 0 01-1.186 1.362 1.37 1.37 0 011.186 1.361 1.37 1.37 0 01-1.186 1.362 1.37 1.37 0 011.186 1.362c0 .7-.517 1.275-1.186 1.362a1.37 1.37 0 011.186 1.362 1.37 1.37 0 01-1.186 1.362 1.37 1.37 0 011.186 1.362 1.37 1.37 0 01-1.186 1.362 1.37 1.37 0 011.186 1.361 1.37 1.37 0 01-1.186 1.362 1.37 1.37 0 011.186 1.362c0 .76-.61 1.375-1.362 1.375a1.368 1.368 0 01-1.362-1.375c0-.699.517-1.274 1.186-1.362a1.37 1.37 0 01-1.186-1.362 1.37 1.37 0 011.186-1.361 1.37 1.37 0 01-1.186-1.362c0-.7.517-1.275 1.186-1.362a1.37 1.37 0 01-1.186-1.362 1.37 1.37 0 011.186-1.362 1.37 1.37 0 01-1.186-1.362c0-.7.517-1.275 1.186-1.362a1.37 1.37 0 01-1.186-1.362 1.37 1.37 0 011.186-1.361 1.37 1.37 0 01-1.186-1.362c0-.7.517-1.275 1.186-1.362a1.37 1.37 0 01-1.186-1.362 1.37 1.37 0 011.186-1.362 1.37 1.37 0 01-1.186-1.362c0-.76.61-1.375 1.362-1.375zm-2.725 0c.753 0 1.363.616 1.363 1.375 0 .699-.518 1.274-1.187 1.362a1.37 1.37 0 011.187 1.362A1.37 1.37 0 019.725 6.69a1.37 1.37 0 011.187 1.362 1.37 1.37 0 01-1.187 1.362 1.37 1.37 0 011.187 1.361 1.37 1.37 0 01-1.187 1.362 1.37 1.37 0 011.187 1.362c0 .7-.518 1.275-1.187 1.362a1.37 1.37 0 011.187 1.362 1.37 1.37 0 01-1.187 1.362 1.37 1.37 0 011.187 1.362 1.37 1.37 0 01-1.187 1.362 1.37 1.37 0 011.187 1.361 1.37 1.37 0 01-1.187 1.362 1.37 1.37 0 011.187 1.362c0 .76-.61 1.375-1.363 1.375a1.368 1.368 0 01-1.362-1.375c0-.699.518-1.274 1.187-1.362a1.37 1.37 0 01-1.187-1.362 1.37 1.37 0 011.187-1.361 1.37 1.37 0 01-1.187-1.362c0-.7.518-1.275 1.187-1.362a1.37 1.37 0 01-1.187-1.362 1.37 1.37 0 011.187-1.362A1.37 1.37 0 018.187 13.5c0-.7.518-1.275 1.187-1.362a1.37 1.37 0 01-1.187-1.362 1.37 1.37 0 011.187-1.361 1.37 1.37 0 01-1.187-1.362c0-.7.518-1.275 1.187-1.362a1.37 1.37 0 01-1.187-1.362 1.37 1.37 0 011.187-1.362 1.37 1.37 0 01-1.187-1.362c0-.76.61-1.375 1.362-1.375zm109.956 3.74c-4.668 0-8.307 3.523-8.307 8.53 0 4.97 3.639 8.493 8.307 8.493 4.668 0 8.307-3.523 8.307-8.493 0-5.007-3.64-8.53-8.307-8.53zM23.139 9.402c.752 0 1.362.615 1.362 1.374a1.37 1.37 0 01-1.186 1.362A1.37 1.37 0 0124.5 13.5c0 .7-.517 1.275-1.186 1.362a1.37 1.37 0 011.186 1.362c0 .76-.61 1.375-1.362 1.375a1.369 1.369 0 01-1.363-1.375 1.37 1.37 0 011.187-1.362 1.37 1.37 0 01-1.187-1.362c0-.699.518-1.275 1.187-1.362a1.37 1.37 0 01-1.187-1.362c0-.759.61-1.374 1.363-1.374zm-2.725 0c.753 0 1.362.615 1.362 1.374a1.37 1.37 0 01-1.186 1.362 1.37 1.37 0 011.186 1.362c0 .7-.517 1.275-1.186 1.362a1.37 1.37 0 011.186 1.362c0 .76-.61 1.375-1.362 1.375a1.369 1.369 0 01-1.362-1.375 1.37 1.37 0 011.186-1.362 1.37 1.37 0 01-1.186-1.362c0-.699.517-1.275 1.186-1.362a1.37 1.37 0 01-1.186-1.362c0-.759.61-1.374 1.362-1.374zm-13.602 0c.752 0 1.362.615 1.362 1.374a1.37 1.37 0 01-1.187 1.362A1.37 1.37 0 018.174 13.5c0 .7-.517 1.275-1.187 1.362a1.37 1.37 0 011.187 1.362c0 .76-.61 1.374-1.362 1.374a1.369 1.369 0 01-1.363-1.374 1.37 1.37 0 011.187-1.362A1.37 1.37 0 015.449 13.5c0-.7.518-1.274 1.187-1.362a1.37 1.37 0 01-1.187-1.362c0-.76.61-1.375 1.363-1.375zm-2.725 0c.752 0 1.362.615 1.362 1.374a1.37 1.37 0 01-1.186 1.362A1.37 1.37 0 015.449 13.5c0 .7-.517 1.275-1.186 1.362a1.37 1.37 0 011.186 1.362c0 .76-.61 1.375-1.362 1.375a1.369 1.369 0 01-1.362-1.375 1.37 1.37 0 011.186-1.362A1.37 1.37 0 012.725 13.5c0-.699.517-1.275 1.186-1.362a1.37 1.37 0 01-1.186-1.362c0-.759.61-1.374 1.362-1.374zm-2.725 0c.753 0 1.363.615 1.363 1.374a1.37 1.37 0 01-1.187 1.362A1.37 1.37 0 012.725 13.5c0 .7-.518 1.275-1.187 1.362a1.37 1.37 0 011.187 1.362c0 .76-.61 1.375-1.363 1.375A1.369 1.369 0 010 16.224a1.37 1.37 0 011.186-1.362A1.37 1.37 0 010 13.5c0-.699.518-1.275 1.187-1.362A1.37 1.37 0 010 10.776c0-.759.61-1.374 1.362-1.374zm14.982 4.303a1.367 1.367 0 01-1.17 1.157c.603.078 1.08.553 1.17 1.156a1.367 1.367 0 011.17-1.156 1.367 1.367 0 01-1.17-1.157zm0-2.723a1.367 1.367 0 01-1.17 1.156c.603.079 1.08.553 1.17 1.157a1.367 1.367 0 011.17-1.157 1.366 1.366 0 01-1.17-1.156zm77.542-5.678h-5.219v7.677h5.22c1.91 0 3.491-1.706 3.491-3.857 0-2.152-1.58-3.82-3.492-3.82z" fill="#00a6ff" fill-rule="evenodd"/></svg>