<?xml version="1.0" encoding="UTF-8"?>
<svg width="203px" height="32px" viewBox="0 0 203 32" version="1.1" xmlns="http://www.w3.org/2000/svg" xmlns:xlink="http://www.w3.org/1999/xlink">
    <title>Group 109 Copy 2</title>
    <g id="New" stroke="none" stroke-width="1" fill="none" fill-rule="evenodd">
        <g id="Group-109-Copy-2" fill="#00A6FF">
            <g id="Group-108">
                <g id="Group-107">
                    <g id="Group-106" transform="translate(0.000000, 0.208596)">
                        <path d="M191.648561,0.0642988441 C196.450494,0.0642988441 200.124988,2.49318427 202.087414,6.52722002 L197.243662,9.28565409 C196.19986,7.10386189 194.613247,5.58062091 191.648561,5.58062091 C189.226685,5.58062091 187.80707,6.81554096 187.80707,8.46219203 C187.80707,10.2325262 188.934232,11.1791254 193.360629,12.4965008 C197.995565,13.9375594 202.922677,15.4605274 202.922677,21.3473527 C202.922677,26.7399917 198.538099,30.0335669 192.31655,30.0335669 C186.345359,30.0335669 182.420508,27.1929504 180.833619,22.9115484 L185.761007,20.071205 C186.80481,22.7466376 188.850872,24.4757441 192.483548,24.4757441 C195.949503,24.4757441 197.160302,23.0349585 197.160302,21.4295351 C197.160302,19.2889706 195.197599,18.4655086 190.855117,17.2305885 C186.387178,15.9544408 182.044695,14.1019242 182.044695,8.62710287 C182.044695,3.19296319 186.637812,0.0642988441 191.648561,0.0642988441 Z M136.781095,0.0643261472 C145.215704,0.0643261472 151.98034,6.60970275 151.98034,15.0488236 C151.98034,23.4469899 145.215704,30.0335942 136.781095,30.0335942 C128.346487,30.0335942 121.62367,23.4469899 121.62367,15.0488236 C121.62367,6.60970275 128.346487,0.0643261472 136.781095,0.0643261472 Z M175.572318,0.640749585 L175.572318,6.07488926 L163.462939,6.07488926 L163.462939,12.2085348 L174.528516,12.2085348 L174.528516,17.5599461 L163.462939,17.5599461 L163.462939,24.0231403 L175.781134,24.0231403 L175.781134,29.4570069 L157.700841,29.4570069 L157.700841,0.640749585 L175.572318,0.640749585 Z M107.67685,0.640886101 C113.063412,0.640886101 117.406172,4.92201508 117.406172,10.1912439 C117.406172,13.8138217 115.109474,17.0658961 111.768975,18.5891371 L118.241158,29.4571434 L112.01961,29.4571434 L106.131779,19.4538269 L101.747477,19.4538269 L101.747477,29.4571434 L95.985102,29.4571434 L95.985102,0.640886101 L107.67685,0.640886101 Z M90.0557019,0.640749585 L90.0557019,6.07488926 L77.9463226,6.07488926 L77.9463226,12.2085348 L89.0118997,12.2085348 L89.0118997,17.5599461 L77.9463226,17.5599461 L77.9463226,24.0231403 L90.2645177,24.0231403 L90.2645177,29.4570069 L72.1842244,29.4570069 L72.1842244,0.640749585 L90.0557019,0.640749585 Z M48.5086363,0.640831494 L48.5086363,12.0849336 L59.3651206,12.0849336 L59.3651206,0.640831494 L65.0856772,0.640831494 L65.0856772,29.4570888 L59.3651206,29.4570888 L59.3651206,17.5188003 L48.5086363,17.5188003 L48.5086363,29.4570888 L42.7462611,29.4570888 L42.7462611,0.640831494 L48.5086363,0.640831494 Z M17.0393437,1.4297551 C17.893993,1.4297551 18.5869071,2.11287913 18.5869071,2.95545337 C18.5869071,3.73062677 18.0007968,4.37069621 17.2418051,4.46848369 C18.0007968,4.56383802 18.5869071,5.2038873 18.5869071,5.97880959 C18.5869071,6.75466656 17.9997627,7.39518119 17.2397968,7.49209734 C17.9997627,7.58603821 18.5869071,8.22653286 18.5869071,9.0021385 C18.5869071,9.77799548 17.9997627,10.4185101 17.2397968,10.5154263 C17.9219607,10.5994727 18.4648773,11.1244442 18.5688905,11.7919719 C18.6806986,11.0602338 19.3221423,10.4997965 20.0965015,10.4997965 C20.9036704,10.4997965 21.5665753,11.1091262 21.6377401,11.8866319 L21.6439265,12.0254947 L21.6439265,12.0254947 C21.6440649,12.8006681 21.0579547,13.4407376 20.298963,13.5385251 C21.0105177,13.6278941 21.5701258,14.196023 21.6372973,14.9052063 L21.6439265,15.0488236 L21.6439265,15.0488236 C21.6440649,15.8246806 21.0569205,16.4651952 20.2969547,16.5621114 C21.0094227,16.6502066 21.5699968,17.2186473 21.6372855,17.9284376 L21.6439265,18.0721799 L21.6439265,18.0721799 C21.6440649,18.9150271 20.9511509,19.5981512 20.0965015,19.5981512 C19.3221423,19.5981512 18.6806986,19.0377138 18.566678,18.3057728 C18.4648773,18.9734856 17.9219607,19.4984733 17.2397968,19.5854676 C17.9997627,19.6794085 18.5869071,20.3199031 18.5869071,21.0955088 C18.5869071,21.8704311 18.0007968,22.5107113 17.2418051,22.6085343 C18.0007968,22.7038661 18.5869071,23.3439154 18.5869071,24.1188377 C18.5869071,24.8944433 17.9997627,25.534938 17.2397968,25.6318526 C17.9997627,25.7260936 18.5869071,26.3665883 18.5869071,27.1421939 C18.5869071,27.9847682 17.893993,28.6678922 17.0393437,28.6678922 C16.1844173,28.6678922 15.4915033,27.9847682 15.4915033,27.1421939 C15.4915033,26.3665883 16.0786477,25.7260936 16.8388296,25.6291791 C16.0786477,25.534938 15.4915033,24.8944433 15.4915033,24.1188377 C15.4915033,23.3439154 16.0776135,22.7038661 16.8368207,22.6060803 C16.0776135,22.5107113 15.4915033,21.8704311 15.4915033,21.0955088 C15.4915033,20.3199031 16.0786477,19.6794085 16.8388296,19.5824939 C16.0786477,19.4885515 15.4915033,18.8480368 15.4915033,18.0721799 C15.4915033,17.2965742 16.0786477,16.6560796 16.8388296,16.559165 C16.0786477,16.4651952 15.4915033,15.8246806 15.4915033,15.0488236 C15.4915033,14.2739014 16.0776135,13.6338521 16.8368207,13.5360662 C16.0776135,13.4407376 15.4915033,12.8006681 15.4915033,12.0254947 C15.4915033,11.2498891 16.0786477,10.6093944 16.8388296,10.5124799 C16.0786477,10.4185101 15.4915033,9.77799548 15.4915033,9.0021385 C15.4915033,8.22653286 16.0786477,7.58603821 16.8388296,7.48912364 C16.0786477,7.39518119 15.4915033,6.75466656 15.4915033,5.97880959 C15.4915033,5.2038873 16.0776135,4.56383802 16.8368207,4.46605215 C16.0776135,4.37069621 15.4915033,3.73062677 15.4915033,2.95545337 C15.4915033,2.11287913 16.1844173,1.4297551 17.0393437,1.4297551 Z M13.9440229,1.4297551 C14.7511918,1.4297551 15.4140967,2.03908487 15.4852616,2.81659051 L15.4915033,2.95545337 L15.4915033,2.95545337 C15.4915864,3.73077785 14.9052476,4.3709457 14.1460406,4.46854081 C14.8577972,4.55764805 15.4176187,5.1258471 15.4848161,5.83516464 L15.4915033,5.97880959 L15.4915033,5.97880959 C15.4915864,6.75447338 14.9047343,7.39486222 14.1450437,7.49202485 C14.8572536,7.5804614 15.4175547,8.14881284 15.4848103,8.85843154 L15.4915033,9.0021385 L15.4915033,9.0021385 C15.4915864,9.7778023 14.9047343,10.4181911 14.1450437,10.5153538 C14.8572536,10.6038159 15.4175547,11.172169 15.4848103,11.8817878 L15.4915033,12.0254947 L15.4915033,12.0254947 C15.4915864,12.8008192 14.9052476,13.4409871 14.1460406,13.5385822 C14.8577972,13.6276638 15.4176187,14.1958613 15.4848161,14.9051787 L15.4915033,15.0488236 L15.4915033,15.0488236 C15.4915864,15.8244874 14.9047343,16.4648763 14.1450437,16.5620389 C14.8572536,16.6505011 15.4175547,17.2188541 15.4848103,17.9284729 L15.4915033,18.0721799 L15.4915033,18.0721799 C15.4915864,18.8478437 14.9047343,19.4882325 14.1450437,19.5853951 C14.8572536,19.6738317 15.4175547,20.2421831 15.4848103,20.9518018 L15.4915033,21.0955088 L15.4915033,21.0955088 C15.4915864,21.8705821 14.9052476,22.5109609 14.1460406,22.6085914 C14.8577972,22.6976776 15.4176187,23.2658753 15.4848161,23.9751928 L15.4915033,24.1188377 L15.4915033,24.1188377 C15.4915864,24.8942502 14.9047343,25.534619 14.1450437,25.6317801 C14.8572536,25.7204981 15.4175547,26.2888671 15.4848103,26.9984869 L15.4915033,27.1421939 L15.4915033,27.1421939 C15.4915864,27.9847682 14.7986723,28.6678922 13.9440229,28.6678922 C13.0890966,28.6678922 12.3961825,27.9847682 12.3961825,27.1421939 C12.3961825,26.3667814 12.9830346,25.7264126 13.742941,25.6292516 C12.9830346,25.534619 12.3961825,24.8942502 12.3961825,24.1188377 C12.3961825,23.3437644 12.9825213,22.7036166 13.7419439,22.6060232 C12.9825213,22.5109609 12.3961825,21.8705821 12.3961825,21.0955088 C12.3961825,20.3200963 12.9830346,19.6797275 13.742941,19.5825664 C12.9830346,19.4882325 12.3961825,18.8478437 12.3961825,18.0721799 C12.3961825,17.2967673 12.9830346,16.6563985 13.742941,16.5592375 C12.9830346,16.4648763 12.3961825,15.8244874 12.3961825,15.0488236 C12.3961825,14.2737503 12.9825213,13.6336026 13.7419439,13.5360091 C12.9825213,13.4409871 12.3961825,12.8008192 12.3961825,12.0254947 C12.3961825,11.2500822 12.9830346,10.6097134 13.742941,10.5125524 C12.9830346,10.4181911 12.3961825,9.7778023 12.3961825,9.0021385 C12.3961825,8.22672598 12.9830346,7.58635717 13.742941,7.48919614 C12.9830346,7.39486222 12.3961825,6.75447338 12.3961825,5.97880959 C12.3961825,5.20373626 12.9825213,4.56358853 13.7419439,4.46599504 C12.9825213,4.3709457 12.3961825,3.73077785 12.3961825,2.95545337 C12.3961825,2.11287913 13.0890966,1.4297551 13.9440229,1.4297551 Z M10.8487576,1.4297551 C11.6559264,1.4297551 12.3188314,2.03908487 12.3899962,2.81659051 L12.3961825,2.95545337 L12.3961825,2.95545337 C12.396321,3.73077785 11.8099823,4.3709457 11.0507752,4.46854081 C11.7625318,4.55764805 12.3223534,5.1258471 12.3895508,5.83516464 L12.3961825,5.97880959 L12.3961825,5.97880959 C12.396321,6.75447338 11.8094689,7.39486222 11.0497784,7.49202485 C11.7619883,7.5804614 12.3222894,8.14881284 12.3895449,8.85843154 L12.3961825,9.0021385 L12.3961825,9.0021385 C12.396321,9.7778023 11.8094689,10.4181911 11.0497784,10.5153538 C11.7619883,10.6038159 12.3222894,11.172169 12.3895449,11.8817878 L12.3961825,12.0254947 L12.3961825,12.0254947 C12.396321,12.8008192 11.8099823,13.4409871 11.0507752,13.5385822 C11.7625318,13.6276638 12.3223534,14.1958613 12.3895508,14.9051787 L12.3961825,15.0488236 L12.3961825,15.0488236 C12.396321,15.8244874 11.8094689,16.4648763 11.0497784,16.5620389 C11.7619883,16.6505011 12.3222894,17.2188541 12.3895449,17.9284729 L12.3961825,18.0721799 L12.3961825,18.0721799 C12.396321,18.8478437 11.8094689,19.4882325 11.0497784,19.5853951 C11.7619883,19.6738317 12.3222894,20.2421831 12.3895449,20.9518018 L12.3961825,21.0955088 L12.3961825,21.0955088 C12.396321,21.8705821 11.8099823,22.5109609 11.0507752,22.6085914 C11.7625318,22.6976776 12.3223534,23.2658753 12.3895508,23.9751928 L12.3961825,24.1188377 L12.3961825,24.1188377 C12.396321,24.8942502 11.8094689,25.534619 11.0497784,25.6317801 C11.7619883,25.7204981 12.3222894,26.2888671 12.3895449,26.9984869 L12.3961825,27.1421939 L12.3961825,27.1421939 C12.396321,27.9847682 11.703407,28.6678922 10.8487576,28.6678922 C9.99383124,28.6678922 9.30091719,27.9847682 9.30091719,27.1421939 C9.30091719,26.3665883 9.88806161,25.7260936 10.6482435,25.6291791 C9.88806161,25.534938 9.30091719,24.8944433 9.30091719,24.1188377 C9.30091719,23.3439154 9.88702745,22.7038661 10.6462346,22.6060803 C9.88702745,22.5107113 9.30091719,21.8704311 9.30091719,21.0955088 C9.30091719,20.3199031 9.88806161,19.6794085 10.6482435,19.5824939 C9.88806161,19.4885515 9.30091719,18.8480368 9.30091719,18.0721799 C9.30091719,17.2965742 9.88806161,16.6560796 10.6482435,16.559165 C9.88806161,16.4651952 9.30091719,15.8246806 9.30091719,15.0488236 C9.30091719,14.2739014 9.88702745,13.6338521 10.6462346,13.5360662 C9.88702745,13.4407376 9.30091719,12.8006681 9.30091719,12.0254947 C9.30091719,11.2498891 9.88806161,10.6093944 10.6482435,10.5124799 C9.88806161,10.4185101 9.30091719,9.77799548 9.30091719,9.0021385 C9.30091719,8.22653286 9.88806161,7.58603821 10.6482435,7.48912364 C9.88806161,7.39518119 9.30091719,6.75466656 9.30091719,5.97880959 C9.30091719,5.2038873 9.88702745,4.56383802 10.6462346,4.46605215 C9.88702745,4.37069621 9.30091719,3.73062677 9.30091719,2.95545337 C9.30091719,2.11287913 9.99383124,1.4297551 10.8487576,1.4297551 Z M136.781095,5.58064821 C131.477893,5.58064821 127.344226,9.4915469 127.344226,15.0488236 C127.344226,20.5651457 131.477893,24.4757714 136.781095,24.4757714 C142.08402,24.4757714 146.217964,20.5651457 146.217964,15.0488236 C146.217964,9.4915469 142.08402,5.58064821 136.781095,5.58064821 Z M26.2870876,10.4997965 C27.141737,10.4997965 27.834651,11.1829205 27.834651,12.0254947 C27.834651,12.8006681 27.2485408,13.4407376 26.4895491,13.5385251 C27.2485408,13.6338521 27.834651,14.2739014 27.834651,15.0488236 C27.834651,15.8246806 27.2475066,16.4651952 26.4875407,16.5621114 C27.2475066,16.6560796 27.834651,17.2965742 27.834651,18.0721799 C27.834651,18.9150271 27.141737,19.5981512 26.2870876,19.5981512 C25.4321613,19.5981512 24.7392472,18.9150271 24.7392472,18.0721799 C24.7392472,17.2967673 25.3260993,16.6563985 26.0860057,16.5592375 C25.3260993,16.4648763 24.7392472,15.8244874 24.7392472,15.0488236 C24.7392472,14.2737503 25.325586,13.6336026 26.0850085,13.5360091 C25.325586,13.4409871 24.7392472,12.8008192 24.7392472,12.0254947 C24.7392472,11.1829205 25.4321613,10.4997965 26.2870876,10.4997965 Z M23.1917668,10.4997965 C23.9989357,10.4997965 24.6618407,11.1091262 24.7330055,11.8866319 L24.7392472,12.0254947 L24.7392472,12.0254947 C24.7393303,12.8008192 24.1529915,13.4409871 23.3937845,13.5385822 C24.1055411,13.6276638 24.6653627,14.1958613 24.7325601,14.9051787 L24.7392472,15.0488236 L24.7392472,15.0488236 C24.7393303,15.8244874 24.1524782,16.4648763 23.3927877,16.5620389 C24.1049976,16.6505011 24.6652986,17.2188541 24.7325542,17.9284729 L24.7392472,18.0721799 L24.7392472,18.0721799 C24.7393303,18.9150271 24.0464162,19.5981512 23.1917668,19.5981512 C22.3368405,19.5981512 21.6439265,18.9150271 21.6439265,18.0721799 C21.6439265,17.2965742 22.2310709,16.6560796 22.9912528,16.559165 C22.2310709,16.4651952 21.6439265,15.8246806 21.6439265,15.0488236 C21.6439265,14.2739014 22.2300367,13.6338521 22.9892439,13.5360662 C22.2300367,13.4407376 21.6439265,12.8006681 21.6439265,12.0254947 C21.6439265,11.1829205 22.3368405,10.4997965 23.1917668,10.4997965 Z M7.73839877,10.4997965 C8.59304816,10.4997965 9.28596221,11.1829205 9.28596221,12.0254947 C9.28596221,12.8006681 8.69985195,13.4407376 7.94086024,13.5385251 C8.69985195,13.6338521 9.28596221,14.2739014 9.28596221,15.0488236 C9.28596221,15.8246806 8.69881779,16.4651952 7.93885193,16.5621114 C8.69881779,16.6560796 9.28596221,17.2965742 9.28596221,18.0721799 C9.28596221,18.9150271 8.59304816,19.5981512 7.73839877,19.5981512 C6.88347244,19.5981512 6.19055839,18.9150271 6.19055839,18.0721799 C6.19055839,17.2965742 6.77770281,16.6560796 7.53788469,16.559165 C6.77770281,16.4651952 6.19055839,15.8246806 6.19055839,15.0488236 C6.19055839,14.2739014 6.77666865,13.6338521 7.5358758,13.5360662 C6.77666865,13.4407376 6.19055839,12.8006681 6.19055839,12.0254947 C6.19055839,11.1829205 6.88347244,10.4997965 7.73839877,10.4997965 Z M4.64307804,10.4997965 C5.4502469,10.4997965 6.11315184,11.1091262 6.18431668,11.8866319 L6.19055839,12.0254947 L6.19055839,12.0254947 C6.19064147,12.8006681 5.60453121,13.4407376 4.84553951,13.5385251 C5.55709423,13.6278941 6.11670237,14.196023 6.18387388,14.9052063 L6.19055839,15.0488236 L6.19055839,15.0488236 C6.19064147,15.8246806 5.60349705,16.4651952 4.84353119,16.5621114 C5.55599919,16.6502066 6.11657334,17.2186473 6.18386203,17.9284376 L6.19055839,18.0721799 L6.19055839,18.0721799 C6.19064147,18.9150271 5.49772742,19.5981512 4.64307804,19.5981512 C3.78815171,19.5981512 3.09523765,18.9150271 3.09523765,18.0721799 C3.09523765,17.2967673 3.68208972,16.6563985 4.44199614,16.5592375 C3.68208972,16.4648763 3.09523765,15.8244874 3.09523765,15.0488236 C3.09523765,14.2737503 3.6815764,13.6336026 4.44099899,13.5360091 C3.6815764,13.4409871 3.09523765,12.8008192 3.09523765,12.0254947 C3.09523765,11.1829205 3.78815171,10.4997965 4.64307804,10.4997965 Z M1.5477296,10.4997965 C2.35489847,10.4997965 3.01780341,11.1091262 3.08896825,11.8866319 L3.09523765,12.0254947 L3.09523765,12.0254947 C3.09529304,12.8008192 2.5089543,13.4409871 1.74974728,13.5385822 C2.46150386,13.6276638 3.02132543,14.1958613 3.08852283,14.9051787 L3.09523765,15.0488236 L3.09523765,15.0488236 C3.09529304,15.8244874 2.50844098,16.4648763 1.74875041,16.5620389 C2.46096032,16.6505011 3.02126138,17.2188541 3.08851695,17.9284729 L3.09523765,18.0721799 L3.09523765,18.0721799 C3.09529304,18.9150271 2.40237899,19.5981512 1.5477296,19.5981512 C0.692803274,19.5981512 -0.000110777628,18.9150271 -0.000110777628,18.0721799 C-0.000110777628,17.2965742 0.587033643,16.6560796 1.34721552,16.559165 C0.587033643,16.4651952 -0.000110777628,15.8246806 -0.000110777628,15.0488236 C-0.000110777628,14.2739014 0.585999483,13.6338521 1.34520664,13.5360662 C0.585999483,13.4407376 -0.000110777628,12.8006681 -0.000110777628,12.0254947 C-0.000110777628,11.1829205 0.692803274,10.4997965 1.5477296,10.4997965 Z M18.5665707,15.281727 L18.5619723,15.3231391 C18.4426468,15.971387 17.9080311,16.4768935 17.2397968,16.5621114 C17.9219607,16.6461579 18.4648773,17.1711293 18.5688905,17.8386571 C18.6706932,17.1711293 19.2136296,16.6461579 19.8959874,16.559165 C19.2133947,16.4750872 18.6703194,15.9497679 18.5665707,15.281727 Z M18.5665707,12.2583981 L18.5619723,12.2998102 C18.4427664,12.9474085 17.9091021,13.4525514 17.2418051,13.5385251 C17.9232608,13.6238626 18.4653528,14.1487899 18.5689977,14.8159903 C18.6702176,14.1487899 19.2123294,13.6238626 19.8939785,13.5360662 C19.2123294,13.4507272 18.6702176,12.9257835 18.5665707,12.2583981 Z M107.67685,5.95106962 L101.747477,5.95106962 L101.747477,14.4723729 L107.67685,14.4723729 C109.848091,14.4723729 111.64352,12.5789016 111.64352,10.1912439 C111.64352,7.80331318 109.848091,5.95106962 107.67685,5.95106962 Z" id="Combined-Shape"></path>
                    </g>
                </g>
            </g>
        </g>
    </g>
</svg>