<svg xmlns="http://www.w3.org/2000/svg" width="180" height="27"><path fill="#1574F6" fill-rule="evenodd" d="M5.163.944v10.348h9.727V.944h5.125V27H14.89V16.205H5.163V27H0V.944h5.163zm36.684 0v4.914H31.123v5.546h9.8v4.839h-9.8v5.844h10.91V27H26.02V.944h15.827zM83.004 0c7.424 0 13.379 5.897 13.379 13.5 0 7.566-5.955 13.5-13.38 13.5-7.424 0-13.341-5.934-13.341-13.5 0-7.603 5.917-13.5 13.342-13.5zM131.3 0c4.227 0 7.461 2.188 9.189 5.823l-4.264 2.484c-.919-1.965-2.316-3.337-4.925-3.337-2.132 0-3.382 1.112-3.382 2.596 0 1.595.993 2.448 4.889 3.635 4.08 1.298 8.417 2.67 8.417 7.973 0 4.859-3.86 7.826-9.336 7.826-5.256 0-8.711-2.56-10.108-6.416l4.337-2.56c.92 2.412 2.72 3.97 5.918 3.97 3.05 0 4.117-1.299 4.117-2.745 0-1.93-1.728-2.67-5.55-3.783-3.933-1.15-7.756-2.819-7.756-7.752C122.846 2.82 126.89 0 131.3 0zM57.385.52c4.742 0 8.564 3.857 8.564 8.604 0 3.263-2.021 6.193-4.962 7.566l5.697 9.79h-5.476l-5.183-9.012h-3.86v9.013h-5.071V.519zm59.764 0v4.895H106.49v5.526h9.74v4.821h-9.74v5.823h10.843v4.896h-15.915V.519h15.731zm53.348.71a1.37 1.37 0 011.363 1.375 1.37 1.37 0 01-1.187 1.362 1.37 1.37 0 011.187 1.362c0 .698-.517 1.275-1.187 1.361a1.37 1.37 0 011.187 1.363 1.37 1.37 0 01-1.187 1.362c.603.078 1.08.553 1.17 1.156a1.366 1.366 0 011.345-1.17 1.37 1.37 0 011.363 1.375c0 .7-.518 1.275-1.187 1.362a1.37 1.37 0 011.187 1.362c0 .7-.518 1.275-1.187 1.362a1.37 1.37 0 011.187 1.362c0 .76-.61 1.375-1.363 1.375a1.366 1.366 0 01-1.345-1.17 1.367 1.367 0 01-1.17 1.157 1.37 1.37 0 011.187 1.362 1.37 1.37 0 01-1.187 1.362 1.37 1.37 0 011.187 1.362 1.37 1.37 0 01-1.187 1.361 1.37 1.37 0 011.187 1.362c0 .76-.61 1.375-1.363 1.375a1.369 1.369 0 01-1.362-1.375 1.37 1.37 0 011.187-1.362 1.37 1.37 0 01-1.187-1.361c0-.7.518-1.275 1.187-1.362a1.37 1.37 0 01-1.187-1.362c0-.7.517-1.275 1.187-1.362a1.37 1.37 0 01-1.187-1.362 1.37 1.37 0 011.187-1.362 1.37 1.37 0 01-1.187-1.362 1.37 1.37 0 011.187-1.362 1.37 1.37 0 01-1.187-1.362c0-.699.517-1.274 1.187-1.361a1.37 1.37 0 01-1.187-1.362c0-.7.518-1.275 1.187-1.363a1.368 1.368 0 01-1.187-1.361c0-.7.518-1.275 1.187-1.362a1.37 1.37 0 01-1.187-1.362c0-.76.61-1.375 1.362-1.375zm-2.724 0c.752 0 1.362.616 1.362 1.375a1.37 1.37 0 01-1.186 1.362 1.37 1.37 0 011.186 1.362 1.37 1.37 0 01-1.186 1.362 1.369 1.369 0 011.186 1.362 1.37 1.37 0 01-1.186 1.362 1.368 1.368 0 011.186 1.361c0 .7-.517 1.275-1.186 1.362a1.37 1.37 0 011.186 1.362c0 .7-.517 1.275-1.186 1.362a1.37 1.37 0 011.186 1.362 1.37 1.37 0 01-1.186 1.362 1.37 1.37 0 011.186 1.362 1.37 1.37 0 01-1.186 1.362 1.37 1.37 0 011.186 1.361c0 .7-.517 1.275-1.186 1.362a1.37 1.37 0 011.186 1.362c0 .76-.61 1.375-1.362 1.375a1.369 1.369 0 01-1.362-1.375 1.37 1.37 0 011.186-1.362 1.37 1.37 0 01-1.186-1.362 1.37 1.37 0 011.186-1.361 1.37 1.37 0 01-1.186-1.362c0-.7.517-1.275 1.186-1.362a1.37 1.37 0 01-1.186-1.362 1.37 1.37 0 011.186-1.362 1.37 1.37 0 01-1.186-1.362c0-.7.517-1.275 1.186-1.362a1.37 1.37 0 01-1.186-1.362c0-.699.517-1.274 1.186-1.361a1.37 1.37 0 01-1.186-1.362c0-.7.517-1.275 1.186-1.362a1.37 1.37 0 01-1.186-1.362 1.37 1.37 0 011.186-1.362 1.37 1.37 0 01-1.186-1.362c0-.76.61-1.375 1.362-1.375zm-2.725 0a1.37 1.37 0 011.363 1.375 1.37 1.37 0 01-1.187 1.362 1.37 1.37 0 011.187 1.362c0 .698-.518 1.274-1.187 1.362.67.087 1.187.662 1.187 1.362 0 .698-.518 1.274-1.187 1.362.67.087 1.187.662 1.187 1.361 0 .7-.518 1.275-1.187 1.362a1.37 1.37 0 011.187 1.362c0 .7-.518 1.275-1.187 1.362a1.37 1.37 0 011.187 1.362 1.37 1.37 0 01-1.187 1.362 1.37 1.37 0 011.187 1.362 1.37 1.37 0 01-1.187 1.362 1.37 1.37 0 011.187 1.361c0 .7-.518 1.275-1.187 1.362a1.37 1.37 0 011.187 1.362c0 .76-.61 1.375-1.363 1.375a1.369 1.369 0 01-1.362-1.375 1.37 1.37 0 011.186-1.362 1.37 1.37 0 01-1.186-1.362 1.37 1.37 0 011.186-1.361 1.37 1.37 0 01-1.186-1.362c0-.7.517-1.275 1.186-1.362a1.37 1.37 0 01-1.186-1.362 1.37 1.37 0 011.186-1.362 1.37 1.37 0 01-1.186-1.362c0-.7.517-1.275 1.186-1.362a1.37 1.37 0 01-1.186-1.362c0-.699.517-1.274 1.186-1.361a1.37 1.37 0 01-1.186-1.362c0-.7.517-1.275 1.186-1.362a1.37 1.37 0 01-1.186-1.362 1.37 1.37 0 011.186-1.362 1.37 1.37 0 01-1.186-1.362c0-.76.61-1.375 1.362-1.375zM83.004 4.97c-4.668 0-8.307 3.523-8.307 8.53 0 4.97 3.639 8.493 8.307 8.493 4.668 0 8.306-3.523 8.306-8.493 0-5.007-3.638-8.53-8.306-8.53zm95.634 4.432c.752 0 1.362.615 1.362 1.374 0 .7-.517 1.275-1.186 1.362A1.37 1.37 0 01180 13.5c0 .7-.517 1.275-1.186 1.362A1.37 1.37 0 01180 16.224c0 .76-.61 1.375-1.362 1.375a1.37 1.37 0 01-1.363-1.375 1.37 1.37 0 011.187-1.362 1.37 1.37 0 01-1.187-1.362 1.37 1.37 0 011.187-1.362 1.37 1.37 0 01-1.187-1.362c0-.759.61-1.374 1.363-1.374zm-2.725 0c.752 0 1.362.615 1.362 1.374a1.37 1.37 0 01-1.186 1.362 1.37 1.37 0 011.186 1.362c0 .7-.517 1.275-1.186 1.362a1.37 1.37 0 011.186 1.362c0 .76-.61 1.375-1.362 1.375a1.369 1.369 0 01-1.362-1.375 1.37 1.37 0 011.186-1.362 1.37 1.37 0 01-1.186-1.362 1.37 1.37 0 011.186-1.362 1.37 1.37 0 01-1.186-1.362c0-.759.61-1.374 1.362-1.374zm-13.602 0c.752 0 1.362.615 1.362 1.374 0 .7-.518 1.275-1.187 1.362a1.37 1.37 0 011.187 1.362c0 .7-.518 1.275-1.187 1.362a1.37 1.37 0 011.187 1.362c0 .76-.61 1.374-1.362 1.374a1.368 1.368 0 01-1.363-1.374 1.37 1.37 0 011.187-1.362 1.37 1.37 0 01-1.187-1.362c0-.7.518-1.274 1.187-1.362a1.37 1.37 0 01-1.187-1.362c0-.76.61-1.375 1.363-1.375zm-2.725 0c.752 0 1.362.615 1.362 1.374a1.37 1.37 0 01-1.186 1.362 1.37 1.37 0 011.186 1.362c0 .7-.517 1.275-1.186 1.362a1.37 1.37 0 011.186 1.362c0 .76-.61 1.375-1.362 1.375a1.368 1.368 0 01-1.362-1.375 1.37 1.37 0 011.186-1.362 1.37 1.37 0 01-1.186-1.362 1.37 1.37 0 011.186-1.362 1.37 1.37 0 01-1.186-1.362c0-.759.61-1.374 1.362-1.374zm-2.725 0c.753 0 1.363.615 1.363 1.374a1.37 1.37 0 01-1.187 1.362 1.37 1.37 0 011.187 1.362c0 .7-.518 1.275-1.187 1.362a1.37 1.37 0 011.187 1.362c0 .76-.61 1.375-1.363 1.375a1.369 1.369 0 01-1.362-1.375 1.37 1.37 0 011.186-1.362 1.37 1.37 0 01-1.186-1.362 1.37 1.37 0 011.187-1.362 1.37 1.37 0 01-1.187-1.362c0-.759.61-1.374 1.362-1.374zm14.982 4.303a1.367 1.367 0 01-1.17 1.157c.603.078 1.08.553 1.17 1.156a1.367 1.367 0 011.17-1.156 1.368 1.368 0 01-1.17-1.157zm0-2.723a1.366 1.366 0 01-1.17 1.156c.603.079 1.08.553 1.17 1.157a1.368 1.368 0 011.17-1.157 1.367 1.367 0 01-1.17-1.156zM57.385 5.304h-5.22v7.677h5.22c1.911 0 3.492-1.706 3.492-3.857 0-2.152-1.58-3.82-3.492-3.82z"/></svg>