<svg width="100" height="15" xmlns="http://www.w3.org/2000/svg"><path d="M23.407.525v5.748h5.464V.525h2.88V15h-2.88V9.003h-5.464V15h-2.9V.525h2.9zm20.609 0v2.73H37.99v3.08h5.505v2.689h-5.505v3.246h6.129V15h-8.996V.525h8.892zM52.779 0c2.662 0 4.808 2.229 4.808 4.971 0 1.886-1.135 3.579-2.786 4.372L58 15h-3.075l-2.91-5.207h-2.167V15H47V0zm14.359 0c4.17 0 7.516 3.276 7.516 7.5 0 4.203-3.345 7.5-7.516 7.5-4.172 0-7.496-3.297-7.496-7.5 0-4.224 3.324-7.5 7.496-7.5zM94.27 0c2.375 0 4.192 1.216 5.162 3.235l-2.395 1.38c-.516-1.092-1.3-1.854-2.767-1.854-1.197 0-1.9.618-1.9 1.442 0 .886.558 1.36 2.747 2.02 2.292.72 4.728 1.483 4.728 4.43 0 2.699-2.168 4.347-5.244 4.347-2.953 0-4.894-1.422-5.679-3.565l2.437-1.421c.516 1.34 1.528 2.204 3.324 2.204 1.714 0 2.313-.72 2.313-1.524 0-1.072-.97-1.484-3.118-2.102-2.21-.639-4.357-1.566-4.357-4.306 0-2.72 2.271-4.286 4.75-4.286zm-7.95.288v2.72h-5.988v3.07h5.472v2.679h-5.472v3.235h6.092v2.72h-8.941V.288h8.837zM8.426.684a.765.765 0 01.099 1.52.764.764 0 010 1.513.764.764 0 010 1.513.764.764 0 01.657.643.764.764 0 11.855.87.764.764 0 010 1.514.764.764 0 11-.855.87.764.764 0 01-.657.643.764.764 0 010 1.513.764.764 0 010 1.513.764.764 0 01-.099 1.52.764.764 0 01-.099-1.52.764.764 0 010-1.513.764.764 0 010-1.513.764.764 0 010-1.513.764.764 0 010-1.514.764.764 0 010-1.513.764.764 0 010-1.513.764.764 0 010-1.513.764.764 0 01.1-1.52zm-1.53 0a.765.765 0 01.098 1.52.764.764 0 010 1.513.764.764 0 010 1.513.764.764 0 010 1.513.764.764 0 010 1.514.764.764 0 010 1.513.764.764 0 010 1.513.764.764 0 010 1.513.764.764 0 01-.099 1.52.764.764 0 01-.098-1.52.764.764 0 010-1.513.764.764 0 010-1.513.764.764 0 010-1.513.764.764 0 010-1.514.764.764 0 010-1.513.764.764 0 010-1.513.764.764 0 010-1.513.764.764 0 01.098-1.52zm-1.531 0a.765.765 0 01.099 1.52.764.764 0 010 1.513.764.764 0 010 1.513.764.764 0 010 1.513.764.764 0 010 1.514.764.764 0 010 1.513.764.764 0 010 1.513.764.764 0 010 1.513.764.764 0 01-.1 1.52.764.764 0 01-.098-1.52.764.764 0 010-1.513.764.764 0 010-1.513.764.764 0 010-1.513.764.764 0 010-1.514.764.764 0 010-1.513.764.764 0 010-1.513.764.764 0 010-1.513.764.764 0 01.099-1.52zM67.138 2.76c-2.623 0-4.667 1.957-4.667 4.74 0 2.76 2.044 4.717 4.667 4.717 2.622 0 4.666-1.957 4.666-4.718 0-2.782-2.044-4.739-4.666-4.739zM12.999 5.223a.765.765 0 01.1 1.52.764.764 0 010 1.514.764.764 0 01-.1 1.52.765.765 0 01-.099-1.52.764.764 0 010-1.514.764.764 0 01.1-1.52zm-1.53 0a.765.765 0 01.098 1.52.764.764 0 010 1.514.764.764 0 01-.098 1.52.765.765 0 01-.1-1.52.764.764 0 010-1.514.764.764 0 01.1-1.52zm-7.642 0a.765.765 0 01.099 1.52.764.764 0 010 1.514.764.764 0 01-.1 1.52.765.765 0 01-.098-1.52.764.764 0 010-1.514.764.764 0 01.099-1.52zm-1.53 0a.765.765 0 01.098 1.52.764.764 0 010 1.514.764.764 0 01-.099 1.52.765.765 0 01-.099-1.52.764.764 0 010-1.514.764.764 0 01.1-1.52zm-1.532 0a.765.765 0 01.1 1.52.764.764 0 010 1.514.764.764 0 01-.1 1.52.765.765 0 01-.098-1.52.764.764 0 010-1.514.764.764 0 01.098-1.52zm8.417 2.391a.764.764 0 01-.657.643.764.764 0 01.657.642.764.764 0 01.657-.642.764.764 0 01-.657-.643zm0-1.513a.764.764 0 01-.657.642.764.764 0 01.657.643c.05-.335.319-.599.657-.643a.763.763 0 01-.657-.642zM52.996 3H50v4h2.996A2.006 2.006 0 0055 4.99 1.99 1.99 0 0052.996 3z" fill="#ffffff" fill-rule="evenodd"/></svg>