<svg xmlns="http://www.w3.org/2000/svg" width="100" height="15"><path fill="#FFF" fill-rule="evenodd" d="M2.868.525v5.748h5.404V.525h2.848V15H8.272V9.003H2.868V15H0V.525h2.868zm20.38 0v2.73h-5.957v3.08h5.444v2.689H17.29v3.246h6.06V15h-8.896V.525h8.793zM46.113 0c4.125 0 7.433 3.276 7.433 7.5 0 4.203-3.308 7.5-7.433 7.5s-7.412-3.297-7.412-7.5c0-4.224 3.287-7.5 7.412-7.5zm26.831 0c2.349 0 4.146 1.216 5.105 3.235l-2.368 1.38c-.511-1.092-1.287-1.854-2.737-1.854-1.184 0-1.878.618-1.878 1.442 0 .886.551 1.36 2.716 2.02 2.266.72 4.676 1.483 4.676 4.43 0 2.699-2.144 4.347-5.187 4.347-2.92 0-4.84-1.422-5.615-3.565l2.41-1.421c.51 1.34 1.51 2.204 3.287 2.204 1.695 0 2.287-.72 2.287-1.524 0-1.072-.96-1.484-3.084-2.102-2.184-.639-4.308-1.566-4.308-4.306 0-2.72 2.246-4.286 4.696-4.286zM31.881.289c2.634 0 4.757 2.142 4.757 4.78 0 1.813-1.123 3.44-2.756 4.203l3.165 5.44h-3.043l-2.879-5.007h-2.144v5.007h-2.818V.289zm33.202 0v2.72H59.16v3.07h5.411v2.678h-5.41v3.235h6.023v2.72h-8.842V.288h8.74zm26.61.394a.76.76 0 01.757.764.762.762 0 01-.659.757.76.76 0 01.66.756.761.761 0 01-.66.757c.372.048.66.368.66.757a.76.76 0 01-.66.756.763.763 0 010 1.513c.372.049.66.369.66.757s-.288.708-.66.757a.763.763 0 010 1.513c.372.048.66.368.66.757a.76.76 0 01-.66.756c.372.048.66.368.66.757a.76.76 0 01-.66.756c.372.049.66.369.66.757 0 .422-.34.764-.758.764s-.756-.342-.756-.764c0-.388.287-.708.659-.757a.76.76 0 01-.66-.756c0-.389.288-.709.66-.757a.76.76 0 01-.66-.756c0-.389.288-.709.66-.757a.763.763 0 010-1.513c-.372-.049-.66-.369-.66-.757s.288-.708.66-.757a.763.763 0 010-1.513.76.76 0 01-.66-.756c0-.389.288-.709.66-.757a.761.761 0 01-.66-.757.76.76 0 01.66-.756.763.763 0 01-.66-.757c0-.422.34-.764.757-.764zm3.028 0a.76.76 0 01.757.764.762.762 0 01-.66.757.76.76 0 01.66.756.761.761 0 01-.66.757c.372.049.66.368.66.757a.76.76 0 01-.66.756.76.76 0 01.65.643.759.759 0 01.748-.65.76.76 0 01.757.764.76.76 0 01-.66.756c.372.049.66.369.66.757s-.288.708-.66.757a.76.76 0 01.66.756c0 .422-.34.764-.757.764a.759.759 0 01-.748-.65.758.758 0 01-.65.643.76.76 0 01.66.756.761.761 0 01-.66.757c.372.048.66.368.66.757a.76.76 0 01-.66.756c.372.049.66.369.66.757 0 .422-.34.764-.757.764a.76.76 0 01-.757-.764.762.762 0 01-.757.764.76.76 0 01-.757-.764c0-.388.288-.708.66-.757a.76.76 0 01-.66-.756c0-.389.288-.709.66-.757a.76.76 0 01-.66-.756c0-.389.288-.709.66-.757a.763.763 0 010-1.513c-.372-.049-.66-.369-.66-.757s.288-.708.66-.757a.763.763 0 010-1.513.76.76 0 01-.66-.756c0-.389.288-.709.66-.757a.761.761 0 01-.66-.757.76.76 0 01.66-.756.763.763 0 01-.66-.757c0-.422.34-.764.757-.764a.76.76 0 01.757.764.762.762 0 01.757-.763zm-.757 11.364a.762.762 0 01-.66.75.76.76 0 01.66.756.764.764 0 01.66-.757.76.76 0 01-.66-.756zM46.114 2.76c-2.594 0-4.616 1.957-4.616 4.74 0 2.76 2.022 4.717 4.615 4.717 2.593 0 4.615-1.957 4.615-4.718 0-2.782-2.022-4.739-4.615-4.739zm47.85 7.773a.763.763 0 01-.66.75c.373.047.66.367.66.756a.764.764 0 01.66-.757.761.761 0 01-.66-.757zm0-1.514a.761.761 0 01-.66.75.76.76 0 01.66.757.763.763 0 01.66-.757.762.762 0 01-.66-.757zm5.28-3.797a.76.76 0 01.756.764.76.76 0 01-.66.756c.373.049.66.369.66.757s-.287.708-.66.757a.76.76 0 01.66.756c0 .422-.339.764-.757.764s-.757-.342-.757-.764a.76.76 0 01.66-.756c-.372-.049-.66-.369-.66-.757s.288-.708.66-.757a.76.76 0 01-.66-.756c0-.422.34-.764.757-.764zm-1.514 0a.76.76 0 01.756.764.76.76 0 01-.659.756c.372.049.66.369.66.757s-.288.708-.66.757a.76.76 0 01.66.756c0 .422-.34.764-.757.764a.76.76 0 01-.757-.764.76.76 0 01.659-.756c-.372-.049-.66-.369-.66-.757s.288-.708.66-.757a.76.76 0 01-.66-.756c0-.422.34-.764.758-.764zm-7.557 0a.76.76 0 01.756.764.76.76 0 01-.659.756c.372.049.66.369.66.757s-.288.708-.66.757a.76.76 0 01.66.756c0 .422-.34.764-.757.764a.76.76 0 01-.757-.764.76.76 0 01.659-.756c-.372-.049-.66-.369-.66-.757s.288-.708.66-.757a.76.76 0 01-.66-.756c0-.422.34-.764.758-.764zm-1.514 0a.76.76 0 01.757.764.76.76 0 01-.66.756c.372.049.66.369.66.757s-.288.708-.66.757a.76.76 0 01.66.756c0 .422-.34.764-.757.764a.76.76 0 01-.757-.764.76.76 0 01.66-.756c-.373-.049-.66-.369-.66-.757s.287-.708.66-.757a.76.76 0 01-.66-.756.76.76 0 01.757-.764zm-1.514 0a.76.76 0 01.757.764.76.76 0 01-.66.756c.373.049.66.369.66.757s-.287.708-.66.757a.76.76 0 01.66.756c0 .422-.339.764-.757.764s-.757-.342-.757-.764a.76.76 0 01.66-.756c-.372-.049-.66-.369-.66-.757s.288-.708.66-.757a.76.76 0 01-.66-.756c0-.422.34-.764.757-.764zm6.819 2.284a.762.762 0 01-.66.75.76.76 0 01.66.756.763.763 0 01.66-.756.762.762 0 01-.66-.757zm1.504.107a.76.76 0 01-.65.643c.335.043.6.307.65.642a.76.76 0 01.65-.642.762.762 0 01-.65-.643zm-1.504-1.62a.762.762 0 01-.66.75.76.76 0 01.66.756.764.764 0 01.66-.757.76.76 0 01-.66-.756zm1.504.107a.758.758 0 01-.65.642.76.76 0 01.65.643.762.762 0 01.65-.643.76.76 0 01-.65-.642zM31.881 2.946h-2.9v4.265h2.9c1.061 0 1.94-.947 1.94-2.142 0-1.195-.879-2.123-1.94-2.123zm62.083 1.535a.763.763 0 01-.66.75.76.76 0 01.66.756.764.764 0 01.66-.757.76.76 0 01-.66-.756zm0-1.514a.761.761 0 01-.66.75.76.76 0 01.66.757.763.763 0 01.66-.757.761.761 0 01-.66-.757zm0-1.513a.761.761 0 01-.66.75.76.76 0 01.66.756.763.763 0 01.66-.756.762.762 0 01-.66-.757z"/></svg>