<svg xmlns="http://www.w3.org/2000/svg" width="60" height="60" viewBox="0 0 60 60">
    <g fill="none">
        <path fill="#00A6FF" d="M34.493 3.316L3.316 34.493c-1.83 1.83-1.83 4.798 0 6.629l15.562 15.562c1.83 1.831 4.799 1.831 6.63 0l31.176-31.177c1.831-1.83 1.831-4.798 0-6.629L41.122 3.316c-1.83-1.83-4.799-1.83-6.63 0z" opacity=".4"/>
        <path fill="#2B0392" d="M60 12.391c0-2.618-1.02-5.08-2.871-6.93L54.54 2.87C52.688 1.02 50.227 0 47.609 0c-2.233 0-4.35.744-6.074 2.11-2.3-1.899-5.72-1.774-7.87.377h-.001L2.487 33.664c-2.15 2.151-2.276 5.572-.377 7.871C.744 43.259 0 45.375 0 47.609c0 2.618 1.02 5.08 2.871 6.93l2.589 2.59C7.312 58.98 9.773 60 12.391 60c2.233 0 4.35-.744 6.074-2.11 1.078.89 2.403 1.336 3.728 1.336 1.5 0 3-.571 4.143-1.713l31.177-31.177c2.15-2.151 2.276-5.572.377-7.871 1.366-1.724 2.11-3.84 2.11-6.074zM47.609 2.344c1.992 0 3.865.776 5.274 2.184l2.589 2.59c1.408 1.408 2.184 3.281 2.184 5.273 0 1.596-.498 3.116-1.42 4.381L43.228 3.764c1.265-.922 2.785-1.42 4.38-1.42zM12.39 57.656c-1.992 0-3.865-.776-5.274-2.184l-2.589-2.59c-1.408-1.408-2.184-3.281-2.184-5.273 0-1.596.498-3.116 1.42-4.381l13.008 13.008c-1.265.922-2.785 1.42-4.38 1.42zM55.856 24.68L24.679 55.856c-1.371 1.37-3.602 1.37-4.972 0L4.528 40.677l-.384-.384c-1.37-1.37-1.37-3.6 0-4.972L35.321 4.144c1.371-1.37 3.602-1.37 4.972 0l15.563 15.563c1.37 1.37 1.37 3.6 0 4.972zm-22.963 2.428c.228.23.528.344.828.344.3 0 .6-.115.829-.344l8.987-8.986c.457-.458.457-1.2 0-1.658-.458-.457-1.2-.457-1.658 0l-8.987 8.987c-.457.458-.457 1.2 0 1.657zm-5.8 5.8c-.458-.457-1.2-.457-1.658 0l-8.972 8.972c-.457.458-.457 1.2 0 1.658.23.229.529.343.829.343.3 0 .6-.114.828-.343l8.972-8.972c.458-.458.458-1.2 0-1.658zm11.266-21.622c-.458-.457-1.2-.457-1.658 0L11.285 36.701c-.457.458-.457 1.2 0 1.658.23.228.529.343.829.343.3 0 .6-.114.829-.343l25.416-25.416c.457-.458.457-1.2 0-1.658zm8.698 10.356L21.641 47.057c-.457.458-.457 1.2 0 1.658.23.228.53.343.829.343.3 0 .6-.115.829-.343l25.416-25.416c.457-.458.457-1.2 0-1.658-.458-.457-1.2-.457-1.658 0zM29.18 29.194c-.218.218-.344.52-.344.828 0 .308.126.61.344.829.217.218.52.343.828.343.31 0 .61-.125.829-.343.219-.218.343-.52.343-.829 0-.308-.124-.61-.343-.828-.218-.218-.52-.344-.829-.344-.308 0-.61.126-.828.344z"/>
    </g>
</svg>
