<svg xmlns="http://www.w3.org/2000/svg" xmlns:xlink="http://www.w3.org/1999/xlink" width="396" height="126" viewBox="0 0 396 126">
    <defs>
        <path id="prefix__a" d="M0 0L64.878 0 64.878 50.793 0 50.793z"/>
        <path id="prefix__c" d="M0 0L111 0 111 70 0 70z"/>
    </defs>
    <g fill="none" fill-rule="evenodd" opacity=".7">
        <path fill="#000" d="M222.037 108.733c-2.123 1.239-4.205 2.545-6.23 3.932 2.115-1.103 4.223-2.22 6.32-3.356-.038-.142-.06-.287-.075-.422-.006-.051-.01-.103-.015-.154zm3.187-1.797c-.44.24-.88.483-1.319.728 0 .187.004.373.018.559.002.032.007.064.01.096.285-.156.57-.311.854-.469.072-.107.143-.214.21-.327.106-.177.172-.38.227-.587zm2.48-12.417c-.287.574-.554 1.158-.806 1.746-1.207 2.816-2.146 5.79-2.696 8.802-.103.562-.199 1.137-.253 1.715.51-.279 1.024-.554 1.538-.826.044-.162.09-.323.133-.485.197-.75.382-1.503.555-2.258.352-1.53.655-3.07.92-4.616.231-1.354.433-2.715.609-4.078zm6.458 7.94c-.827.383-1.65.772-2.471 1.168-1.471.71-2.933 1.443-4.383 2.2-.061.248-.127.495-.207.737 2.373-1.336 4.728-2.703 7.06-4.106zm32.155-24.312c-2.788 1.96-5.709 3.741-8.624 5.508-.829 1.252-1.71 2.47-2.658 3.637-.962 1.186-1.997 2.367-3.225 3.295-.49.37-1.009.687-1.592.894-.517.185-1.353.42-1.876.112-.03-.019-.056-.04-.083-.062-.988.979-2.06 1.89-3.254 2.582-.884.51-1.858.906-2.886 1.002-.649.061-1.368-.021-1.85-.498-.428-.426-.64-1.004-.758-1.586-1.407 2.105-2.957 4.12-4.611 6.038-.221.256-.71.361-1.03.416-.154.027-.682.122-.769-.1-.64-1.64-.489-3.54-.684-5.262-.15-1.325-.445-3.105-1.775-3.72l-.106.085c-.2.164-.385.343-.561.53l-.03.033c-.451 4.668-1.22 9.31-2.399 13.835 3.599-1.832 7.271-3.523 10.985-5.117 4.102-2.588 8.12-5.306 12.015-8.19 3.983-2.951 7.831-6.083 11.504-9.403 1.452-1.312 2.874-2.656 4.267-4.029zm-41.104 3.584c-3.116 1.385-6.301 2.624-9.536 3.71-1.334.448-2.664.831-3.984 1.225.044.44.067.883.066 1.325-.003 1.199-.213 2.378-.662 3.493-.46 1.141-1.217 2.12-2.174 2.9-1.072.873-2.431 1.417-3.79 1.667-.415.077-.88.097-1.097-.32l-.474-.906-.233-.447-.04-.076-.022-.04-.124-.237c-.315-.594-.634-1.187-.965-1.773-.188-.334-.38-.667-.578-.998-1.08.81-2.12 1.793-2.83 2.951-.557.91-.932 1.975-.715 3.043.214 1.054.956 1.85 1.857 2.405 1.324.815 2.927 1.167 4.46 1.344 2.457.282 4.952.144 7.402-.145.72-.085 1.44-.182 2.153-.305.483-.083.937-.192 1.401-.337.441-.138.994-.35 1.452-.556.502-.227.991-.478 1.466-.756 2.014-1.182 3.814-2.763 5.226-4.61 2.688-3.517 4.097-8.275 1.852-12.365-.036-.065-.074-.128-.111-.192zm-15.399 5.515c-.84.271-1.677.562-2.506.892-1.4.559-2.811 1.238-4.14 2.054.897 1.47 1.69 3 2.486 4.526.036-.01.073-.018.11-.029.08-.024.16-.05.24-.076.142-.052.281-.109.419-.17.135-.06.27-.124.401-.193l.053-.028.14-.083c.235-.144.457-.305.672-.476l.036-.03c.048-.043.095-.086.141-.13.099-.092.194-.188.287-.287.091-.098.18-.2.264-.304l.077-.098.024-.031.008-.011.034-.046c.154-.218.295-.445.421-.68.126-.233.237-.473.336-.719.023-.057.044-.115.066-.173l.025-.073c.044-.13.084-.26.12-.392.15-.54.245-1.096.293-1.654.024-.288.036-.577.037-.865 0-.142-.002-.284-.007-.425l-.002-.041-.003-.064-.014-.208-.018-.186zm-5.526-9.631c-.692.37-1.365.778-2.028 1.225-1.967 1.326-3.743 2.945-5.253 4.776 2.12 1.237 3.814 3.076 5.19 5.07.192.279.378.561.56.846 2.109-1.165 4.356-2.08 6.655-2.808.11-.035.22-.067.33-.1-.133-.94-.369-1.867-.69-2.76-.212-.586-.461-1.16-.746-1.715l-.025-.046c-.004-.008-.01-.023-.023-.046l-.002-.004-.004-.007-.003-.007-.096-.174c-.075-.136-.153-.27-.233-.404-.16-.265-.327-.526-.504-.78-.349-.502-.732-.981-1.15-1.428-.205-.22-.419-.431-.64-.634l-.167-.15c-.065-.056-.216-.171-.049-.043-.117-.09-.228-.187-.346-.277-.25-.19-.509-.369-.776-.534zm50.408 1.686c-1.388 2.356-2.756 4.77-3.803 7.295 1.227-1.649 2.392-3.446 3.23-5.295.186-.41.357-.829.474-1.262.026-.094.047-.189.067-.284l.016-.092.01-.076c.007-.095.012-.191.006-.286zm-40.93-3.91c-1.042-.064-2.002-.032-3.043.095l-.175.024-.186.027-.372.06c-.205.036-.55.103-.68.13l-.177.04-.184.044c-.123.03-.246.06-.368.093-.26.068-.52.141-.777.22l-.02.006-.05.016-.18.06c-.122.04-.242.08-.362.123-.256.09-.51.184-.762.284-.122.048-.263.106-.413.17.428.284.835.6 1.224.943.938.83 1.73 1.82 2.376 2.885.685 1.129 1.23 2.345 1.6 3.61.176.605.311 1.221.403 1.844.774-.225 1.549-.45 2.317-.7 1.75-.566 3.485-1.178 5.203-1.833 1.928-.735 3.832-1.53 5.71-2.383-1.21-1.777-2.971-3.104-4.903-4.077-1.917-.966-4.032-1.547-6.18-1.68zm29.665 3.774c-.611 2.143-1.169 4.305-1.59 6.491.14-.343.273-.688.399-1.037.625-1.73 1.109-3.594 1.19-5.454zm-42.815-2.65l-.048.002-.21.01c-.152.01-.303.025-.454.044l-.185.026c.02-.006.014-.007-.05.006l-.072.016c-.016.003-.032.006-.046.005h.025c-.124.025-.249.051-.372.083-.158.04-.315.085-.47.134l-.124.04-.137.051c-.329.127-.65.272-.962.433-.072.037-.142.076-.213.113l-.097.056c-.165.097-.329.199-.49.304-.334.22-.658.455-.971.703-.082.064-.161.131-.243.196l-.122.105c-.17.147-.336.299-.5.453-.348.328-.682.67-1.005 1.022-.35.384-.686.78-1.01 1.185l-.27.344-.096.126-.03.04c1.19.204 2.347.538 3.441 1.035 2.144-2.393 4.737-4.397 7.615-5.858-.103-.049-.205-.097-.309-.144l-.076-.03c-.062-.025-.124-.05-.187-.073-.27-.099-.544-.184-.823-.252-.128-.032-.257-.058-.386-.084l-.064-.01-.215-.03c-.281-.033-.562-.045-.844-.05zm31.792-17.492c.156-.027.905-.093.776.255-.365.979-.77 1.943-1.216 2.888-1.604 3.4-3.73 6.566-6.273 9.352-.29.318-.847.442-1.257.466-.219.012-.755-.074-.468-.387.708-.775 1.383-1.578 2.023-2.41 2.248-2.92 4.04-6.172 5.321-9.614.058-.154.24-.248.377-.322.219-.12.472-.185.717-.228zm-40.547 24.245l.043.007h.01l-.018-.002-.041-.006-.006-.002h-.003l-.028-.006.015.004-.098-.016c-.105-.017-.21-.046-.304-.088-.225.104-.48.15-.735.136-.325-.018-.811-.317-.55-.69.35-.5.715-.99 1.094-1.47 1.204-1.523 2.6-2.943 4.236-4.017 1.363-.896 2.883-1.53 4.509-1.761 1.318-.187 2.702-.056 3.957.384.481.169.94.378 1.38.62 4.018-1.66 8.561-2.314 12.818-1.259 3.214.797 6.45 2.59 8.393 5.265.82-.392 1.636-.795 2.445-1.21.132-.068 1.485-.5 1.488-.122.009.94.005 1.88-.01 2.821-.045 2.659-.175 5.328-.402 7.991.585-.27 1.235-.433 1.795-.297 1.096.267 1.753 1.153 2.082 2.17.389 1.203.439 2.5.524 3.751.045.653.078 1.33.176 1.99.772-.964 1.518-1.949 2.23-2.958.881-1.25 1.725-2.538 2.504-3.864.024-.563.077-1.126.142-1.68.55-4.715 1.956-9.347 3.385-13.861.112-.352 1.721-.842 1.875-.412.59 1.654.667 3.429.447 5.159-.457 3.587-1.998 6.987-3.788 10.109-.063.11-.13.219-.194.328-.02.695.013 1.386.13 2.06.081.477.213.964.477 1.376.103.163.144.223.339.379.066.052.136.1.21.14.037.02.075.037.112.056l.007.005.014.003c.08.021.163.037.243.058h.05l-.01.01.012-.002.02-.004.008.002.02-.002h.01l.032-.008.033-.004.01-.002c.005-.003.004-.006 0-.008l.031-.012c.009-.002.017-.003.025-.002-.005-.002-.01-.001-.016-.002l.082-.03c.119-.055.237-.112.355-.17l.008-.004c.05-.03.102-.058.153-.087.251-.147.495-.306.733-.474l.195-.14.064-.047c.126-.097.25-.193.371-.29.54-.435 1.053-.9 1.549-1.382.51-.496 1-1.01 1.478-1.537.058-.356.16-.698.223-.93.566-2.056 1.575-4.011 2.565-5.893.372-.707.755-1.408 1.147-2.105.217-.385.436-.77.657-1.152.226-.391.428-.87.715-1.22.355-.435 1.208-.623 1.75-.718.496-.086 1.286-.157 1.503.425.16.432-.025 1.001-.16 1.416-.543 1.67-1.545 3.226-2.516 4.681-1.205 1.806-2.541 3.536-3.993 5.158l-.006.042c-.023.219-.034.447.009.664.016.082.041.156.07.234.006.015.014.03.023.044.052-.036.106-.07.158-.107l.036-.026.092-.07c.058-.046.116-.092.174-.14.13-.106.257-.216.382-.328 1.447-1.293 2.673-2.835 3.806-4.397.418-.576.822-1.16 1.215-1.754-.015-.044.004-.1.082-.172l.082-.08c1.081-1.65 2.072-3.357 2.984-5.102.197-.377 1.977-.774 1.862-.325-.312 1.226-.84 2.38-1.545 3.42.224-.138.45-.275.673-.414 4.57-2.855 9.03-5.952 12.716-9.891.279-.299.878-.419 1.262-.447.207-.015.716.007.447.312-.42.476-.842.95-1.268 1.42-3.407 3.756-7.04 7.31-10.855 10.663-3.746 3.292-7.666 6.388-11.708 9.319-2.49 1.805-5.027 3.544-7.602 5.228l.472-.193c8.296-3.365 16.75-6.336 25.227-9.22.21-.07 1.011-.337 1.216-.101.218.25-.394.478-.56.535-4.776 1.623-9.54 3.277-14.275 5.01-5.127 1.878-10.225 3.848-15.242 5.997-.561.353-1.124.704-1.688 1.053-3.833 2.367-7.735 4.625-11.679 6.808-.178.243-.36.483-.553.715-.392.469-.834.903-1.395 1.17-.477.226-1.401.549-1.938.234-3.58 1.928-7.186 3.806-10.808 5.655-.336.17-.776.277-1.156.256-.164-.01-.5-.12-.244-.317 3.379-2.59 6.947-4.928 10.635-7.066.347-.201.695-.399 1.044-.596.03-1.007.234-2.032.428-2.995.375-1.86.899-3.692 1.52-5.485.633-1.826 1.37-3.63 2.298-5.33.507-.927 1.082-1.881 1.804-2.685.366-3.725.533-7.47.519-11.208-.55.27-1.1.535-1.655.794.641 1.024 1.098 2.165 1.302 3.418.767 4.7-2.024 9.317-5.453 12.349-1.897 1.676-4.126 3.018-6.536 3.84-1.32.451-2.669.707-4.05.896-1.524.209-3.055.368-4.593.43-2.259.09-4.577.031-6.779-.523-1.352-.34-2.792-.89-3.75-1.935-1.832-1.996-.665-4.56.914-6.307.915-1.01 2.003-1.87 3.155-2.62-.929-1.476-1.975-2.882-3.24-4.092-.109-.104-.219-.206-.33-.306l-.178-.158-.023-.02-.076-.066-.071-.06-.082-.066c-.055-.045-.11-.089-.166-.132-.118-.093-.238-.184-.359-.272-.197-.144-.399-.28-.604-.413-.86 1.197-1.61 2.469-2.228 3.8-1.858 3.999-2.432 8.503-1.227 12.771.119.421-1.767.922-1.887.499-.303-1.075-.505-2.175-.594-3.288-.365-4.533 1.107-9.054 3.628-12.814.372-.555.768-1.094 1.183-1.619-.202-.106-.409-.211-.62-.287.188.068-.078-.031-.128-.05-.068-.028-.138-.055-.207-.081-.14-.053-.281-.104-.423-.151-.308-.103-.62-.194-.936-.272-.171-.043-.344-.081-.517-.116-.069-.015-.145-.022-.214-.041zM309.221 26.846c.162.09.438.363.579.308 1.101-.43 2.41-2.514 2.318-3.621-.045-.538-.217-.92-.843-.45-1.19.895-1.781 2.11-2.054 3.763M338.1 28.18c1.063-.204 2.01-.41 2.967-.565 2.112-.339 4.229-.647 6.34-.986.175-.028.327-.197.49-.3-.187-.029-.393-.12-.558-.075-1.208.334-1.997-.312-2.595-1.15-.364-.51-.467-1.194-.719-1.786-.111-.261-.302-.491-.457-.735-.204.2-.453.371-.603.603-1.246 1.922-2.752 3.566-4.932 4.522-.123.054-.216.172-.323.26l.39.212m-35.988 1.524c1.516.223 1.838-.02 1.344-.896-.995-1.761-.78-3.53-.247-5.34.182-.62.321-1.254.433-1.889.025-.138-.15-.308-.232-.463-.12.08-.282.136-.353.247-.16.252-.288.526-.41.8-1.165 2.62-2.476 5.138-4.932 6.886-.14.1-.187.323-.277.488.182.055.363.158.544.16 1.377.013 2.753.007 4.13.007m-9.327.042l2.126-.145c-.121-.602-.244-1.203-.361-1.806-.019-.096-.026-.2-.01-.297.292-1.712.587-3.423.884-5.135.298-1.712.605-3.422.885-5.137.028-.169-.101-.361-.158-.542-.111.075-.277.126-.327.23-.516 1.078-1.035 2.156-1.51 3.251-1.031 2.372-1.966 4.785-3.073 7.122-1.158 2.444-1.226 2.413 1.544 2.46m-8.581-13.996c-.673.181-1.544.32-2.33.65-1.158.486-2.264 1.092-3.368 1.689-.149.08-.26.428-.215.612.502 2.032-.192 3.93-.67 5.847-.286 1.152-.658 2.284-.945 3.436-.085.342-.009.722-.007 1.084.254-.233.511-.461.759-.7 2.063-1.99 4.044-4.072 6.221-5.938 1.138-.975 2.094-2.004 2.781-3.292.886-1.657-.125-3.316-2.226-3.388m-10.201 13.62c.68.034.983-.29 1.145-.935.704-2.807 1.462-5.6 2.189-8.403.057-.222.022-.468.029-.702-.21.106-.487.162-.618.327-1.509 1.903-2.949 3.845-3.17 6.357-.009.1.022.22-.027.294-.118.186-.27.35-.41.524-.113-.146-.306-.281-.327-.439-.057-.438-.137-.904-.044-1.325 1.11-5.033 5.147-9.774 11.485-10.293 1.253-.103 2.43.228 3.109 1.265.645.985.765 2.085.052 3.225-1.336 2.14-2.953 4.033-4.806 5.758-1.074 1-2.138 2.013-3.15 3.07-.282.293-.363.767-.536 1.158.345.045.69.118 1.037.13 2.507.089 5.017.134 7.522.261.94.048 1.493-.174 1.882-1.098 1.61-3.818 3.29-7.61 4.986-11.393.449-.998 1.016-1.952 1.608-2.88.18-.283.624-.41.947-.608.222.356.629.709.633 1.067.022 1.44.056 2.903-.166 4.32-.414 2.648-1.03 5.265-1.494 7.907-.074.42.203.898.317 1.35.398-.17.856-.264 1.183-.519 1.975-1.537 3.02-3.7 4.14-5.83.648-1.233 1.462-2.391 2.29-3.52.21-.287.761-.337 1.156-.494.112.363.324.728.314 1.087-.017.64-.162 1.276-.264 1.913-.305 1.906-.788 3.804-.87 5.718-.073 1.69 1.36 2.463 2.957 1.897.615-.218.94-.567.888-1.216-.172-2.135 1.17-3.663 2.373-5.173.36-.452 1.374-.62 2.056-.563.79.067.802.887.872 1.55.22 2.065-.856 3.505-2.34 4.778-.272.234-.453.57-.677.858.39.204.762.544 1.17.588 2.252.247 4.135-.45 5.901-1.9 2.93-2.401 3.735-5.862 5.129-9.03.724-1.645 1.236-3.376 1.872-5.059.21-.56.478-1.104.778-1.624.105-.181.384-.267.584-.397.154.233.433.463.437.698.009.437-.105.888-.233 1.314-.97 3.196-2.007 6.374-2.901 9.59-.26.936-.186 1.979-.153 2.968.025.732.456.664.9.243.512-.487.98-1.028 1.54-1.454.994-.756 1.744-.771 2.792-.081.888.584 1.738 1.223 2.583 1.865.131.1.148.342.218.518-.22.052-.484.206-.654.138-.518-.207-1.019-.47-1.494-.763-2.09-1.285-2.267-1.263-3.945.592-.237.262-.473.531-.746.753-.969.782-1.837.643-2.331-.481-.293-.666-.315-1.442-.487-2.162-.04-.162-.2-.298-.304-.445-.099.108-.24.2-.29.326-.82 2.032-2.287 3.512-4.159 4.654-.078.047-.139.124-.208.186.12.055.241.162.357.158 3.567-.15 7.145.409 10.712-.408 2.379-.544 4.847-.717 7.276-1.058.192-.027.38-.075.572-.114-.18-.078-.367-.143-.538-.237-1.926-1.051-2.22-3.33-.562-4.742.897-.764 1.932-1.347 3.205-1.138.24.04.436.324.652.496-.192.13-.367.303-.579.382-.666.251-1.38.401-2.015.71-1.032.502-1.387 1.467-.98 2.378.416.93 1.287 1.233 2.456.819 2.54-.902 4.394-2.714 5.556-4.926 1.575-3 2.697-6.222 4.025-9.345.213-.502.437-1.014.75-1.459.14-.2.65-.41.752-.329.233.183.475.57.43.83-.097.577-.31 1.152-.574 1.683-1.162 2.342-2.19 4.733-2.526 7.33-.111.859-.043 1.79.179 2.63.34 1.293.972 1.578 2.368 1.462 1.63-.135 3.276-.138 4.89-.364.812-.114 1.564-.606 2.353-.903.35-.131.751-.327 1.078-.259.27.057.57.432.648.72.046.163-.28.536-.518.64-1.027.453-2.055.938-3.134 1.233-2.807.769-5.617 1.553-8.47 2.118-2.094.416-4.262.468-6.39.734-2.08.26-4.152.585-6.225.89-.104.016-.194.118-.29.179.096.026.19.069.287.076 1.224.098 2.447.254 3.672.273 8.557.13 17.115.213 25.672.35 5.532.09 11.062.253 16.593.369 5.318.11 10.636.203 15.953.301.204.004.444-.08.604 0 .294.144.54.379.807.576-.248.191-.48.519-.744.547-.909.099-1.828.117-2.744.121-3.534.018-7.069.072-10.602.013-5.573-.093-11.144-.303-16.716-.393-4.256-.069-8.517.062-12.77-.06-6.396-.183-12.778-.712-19.189-.572-4.716.103-9.445-.167-14.152.05-3.462.159-6.926.697-10.34 1.32-4.003.729-8.063 1.365-11.92 2.645-16.872 5.603-22.22 4.406-24.897 4.184.62-.04.995.033 1.341 0 .35-.033.671-.173 1.282-.24l.06-.007.42-.048c7.317-.848 14.527-2.494 14.982-2.626 2.585-.754 4.502-1.517 7.052-2.364 4.53-1.502 9.204-2.285 13.914-2.942.584-.081 1.176-.108 1.765-.159-.607-.032-1.215-.089-1.822-.093-3.427-.023-6.854-.007-10.28-.054-3.064-.042-6.128-.148-9.192-.227-.765-.02-1.34.157-1.74.922-.996 1.897-2.14 3.861-3.196 5.729-.198.058-.853.173-1.36.275.069-.287.246-1.006.392-1.249.828-1.369 1.704-2.71 2.532-4.079.22-.365.33-.792.491-1.19-.457-.149-.909-.406-1.372-.428-2.648-.127-5.298-.23-7.949-.257-.466-.005-.935.386-1.403.594.33.385.612.832 1.01 1.135.25.192.692.276 1.015.222 1.093-.181 2.18-.415 3.253-.69.735-.189 1.437-.498 2.166-.712.162-.048.378.08.569.127-.102.202-.149.505-.314.59-1.039.531-2.056 1.213-3.172 1.468-1.902.436-3.933 1.013-5.553-.79-.388-.432-.6-.224-.663.255-.132.984-.229 1.975-.426 2.948-.052.259-.416.458-.637.684-.084-.266-.252-.537-.238-.799.061-1.188.23-2.373.253-3.561.023-1.3-.197-1.294-1.486-1.51-11.703-1.965-6.179 8.52.929 8.836-.672.19-1.317.275-1.93.27-6.785-.045-9.665-10.99-2.682-10.64l4.747.24zM11.895 11c.392-.013.717.212.799.599.224 1.07.449 2.143.57 3.227.043.381-.153.831-.346 1.19-.745 1.388-.736 2.95-1.058 4.435-.247 1.142-.43 2.299-.702 3.434-.661 2.764-1.192 5.549-1.48 8.381-.082.803-.334 1.587-.445 2.388-.105.756-.13 1.522-.182 2.285-.006.081.038.166.058.25l.16-.118c.025-.021.048-.044.065-.07 1.36-2.05 2.72-4.102 4.072-6.157.615-.934 1.23-1.867 1.82-2.818.527-.85 1.019-1.724 1.525-2.588.137-.232.263-.472.406-.7 1.13-1.795 2.312-3.558 3.378-5.39.817-1.406 1.482-2.902 2.226-4.352.469-.914.954-1.82 1.443-2.724.193-.358.545-.562.89-.371.242.134.494.494.507.765.041.849.032 1.711-.083 2.551-.053.389-.323.824-.624 1.081-.364.31-.516.604-.507 1.076.005.276-.164.556-.256.834-.786 2.365-1.595 4.723-2.349 7.099-.55 1.734-1.085 3.477-1.52 5.243-.375 1.53-.551 3.104-.198 4.677.125.56.555.808 1.085.71.379-.071.502-.201.36-.649-.166-.52-.258-1.11-.204-1.651.16-1.629.853-3.068 1.768-4.392.602-.872 1.228-1.732 1.91-2.538.45-.53 1.063-.917 1.516-1.444.27-.315.424-.763.534-1.178.126-.474.151-.977.211-1.47.19-1.564.903-2.952 1.387-4.418.419-1.269 1.218-2.246 1.908-3.293.571-.867 1.434-1.554 2.23-2.247.564-.492 1.278-.46 1.97-.244.9.282 1.403 1.034 1.614 1.834.41 1.551.463 3.16.072 4.74-.132.533.098.584.506.534.65-.08 1.245-.019 1.848.345.855.516 1.171 1.296 1.33 2.202.039.22 0 .452.021.676.01.096.078.187.12.28.075-.07.197-.128.221-.213.23-.817.407-1.65.667-2.457.59-1.833 1.19-3.664 1.847-5.474.208-.573.676-1.047.903-1.617.26-.65.76-1.078 1.206-1.541.559-.581 1.347-.686 2.11-.652 1.356.06 2.572.582 3.33 1.721.782 1.175 1.405 2.469 2 3.756.214.463.141 1.06.209 1.68-.192 1.441-.352 2.964-.614 4.467-.114.652-.379 1.298-.68 1.892-.736 1.456-1.497 2.902-2.315 4.312-1.598 2.75-3.916 4.819-6.406 6.688-1.131.85-2.517 1.083-3.903 1.203-.088.008-.178.007-.266-.003-.81-.093-1.35.153-1.472 1.075-.022.164-.438.439-.571.388-.245-.092-.614-.43-.581-.593.183-.908-.328-1.37-.956-1.797-.019-.012-.04-.025-.05-.044-.127-.235-.416-.57-.346-.689.193-.329.521-.159.82-.022.885.407.966.31 1.201-.687.504-2.143 1.06-4.273 1.606-6.406.437-1.702.803-3.41.66-5.188-.032-.39.039-.793-.022-1.177-.131-.839-1.016-1.427-1.856-1.323-.757.095-1.228.44-1.477 1.217-.208.65-.547 1.275-.923 1.847-.833 1.267-1.668 2.54-2.61 3.721-.943 1.184-1.982 2.297-3.048 3.372-.847.855-1.22 1.804-1.291 3.026-.082 1.413-.707 2.714-2.017 3.363-.902.448-1.959.742-2.916-.104-.129-.114-.475-.024-.703.039-.53.146-1.04.38-1.575.489-.516.104-1.27-.438-1.502-1.095-.488-1.38-.659-2.787-.26-4.24.255-.933.387-1.9.637-2.834.378-1.409.861-2.79 1.201-4.208.227-.944.836-1.744.988-2.669.184-1.116.835-2.024 1.076-3.123.241-1.094.9-2.092 1.369-3.136.061-.138.076-.297.113-.446-.116.08-.302.138-.336.244-.317 1.014-1.294 1.645-1.494 2.745-.083.457-.418.872-.664 1.29-.671 1.14-1.346 2.278-2.038 3.404-.618 1.005-1.276 1.985-1.891 2.992-1.143 1.87-2.236 3.771-3.41 5.62-.767 1.208-1.662 2.331-2.46 3.52-.544.814-.987 1.698-1.536 2.508-.435.644-.916 1.272-1.46 1.821-.505.51-1.043.31-1.132-.399-.072-.57-.023-1.158-.018-1.739.006-.831.02-1.662.031-2.494.007-.467.094-.885.282-1.345.324-.79.44-1.676.585-2.533.233-1.374.404-2.76.63-4.136.218-1.332.459-2.66.72-3.985.115-.586.321-1.153.455-1.736.362-1.578.602-3.195 1.095-4.729.35-1.094.448-2.138.265-3.239-.025-.155-.13-.297-.198-.445-.12.116-.297.21-.354.353-.312.785-.865 1.453-.974 2.347-.053.437-.397.836-.6 1.256-.394.811-.812 1.612-1.158 2.443-.22.527-.326 1.103-.494 1.653-.03.097-.113.245-.182.252-.32.03-.33.15-.158.379.034.046.055.145.03.19-.412.723-.707 1.488-.837 2.315-.006.037-.049.078-.085.099-.698.413-.713.467-.664 1.339.01.168-.088.36-.18.514-.24.392-.516.761-.747 1.158-.052.09-.011.264.036.379.227.548-.003.992-.625 1.186-.057.018-.145.056-.154.099-.072.335-.116.677-.194 1.01-.054.238-.143.467-.224.697-.062.179-.122.36-.208.528-.061.12-.164.22-.245.33-.06.08-.137.157-.17.25-.346.991-.652 2-1.047 2.971-.12.297-.449.55-.738.727-.48.294-.583.558-.335 1.078.05.102.023.291-.043.39-.184.272-.39.536-.623.767-.089.089-.277.115-.41.098-.048-.006-.112-.232-.094-.346.053-.33.138-.656.22-.98.028-.109.127-.214.118-.314-.105-1.267.873-2.052 1.314-3.075.372-.866.7-1.752 1.051-2.627.083-.207.189-.405.276-.61.154-.361.293-.73.455-1.086.196-.43.424-.845.61-1.278.274-.632.527-1.273.78-1.913.296-.747.583-1.497.874-2.246.543-1.4 1.085-2.8 1.632-4.198.343-.878.695-1.751 1.042-2.627.413-1.044.795-2.102 1.247-3.128.252-.573.597-1.108.938-1.635.306-.472.809-.632 1.335-.65zm86.18 15.652c-.118.955-.389 1.846-.817 2.702-.257.514-.213.573.345.485.988-.156 1.966-.38 2.956-.522.903-.129 1.821-.15 2.723-.282 1.392-.204 2.775-.466 4.163-.694.306-.05.623-.038.927-.096.8-.152 1.592-.333 2.391-.488.259-.05.527-.05.79-.076 1.638-.165 3.271-.403 4.912-.477 2.171-.097 4.348-.06 6.523-.09 1.44-.02 2.881-.063 4.322-.078.285-.003.57.077.856.119.375.054 1.503-.02 1.96-.01 1.556.035 3.115.071 4.669.008 2.202-.09 4.354.243 6.48.73 1.009.23 1.953.744 2.936 1.105.445.162.93.22 1.364.403.366.155.56.503.318.89-.204.326-.523.328-.887.186-1.213-.475-2.415-1.009-3.667-1.349-2.107-.572-4.258-.967-6.455-.926-1.111.021-2.22.12-3.331.166-.33.013-.663-.042-.995-.05-2.619-.059-5.237-.153-7.855-.155-1.46-.002-2.92.16-4.38.231-1.24.06-2.485.065-3.723.152-.994.07-1.996.152-2.969.356-3.245.682-6.517 1.159-9.806 1.548-1.215.144-2.412.43-3.619.644-.262.046-.538.113-.795.078-.93-.126-1.617.239-2.202.955-.807.988-2.693 1.238-3.858.691-1.102-.517-1.665-1.353-1.948-2.502-.277-1.127-.756-1.289-1.863-.88-1.084.399-2.015 1.02-2.929 1.714-.399.303-.35.573-.108.835.65.702.722 1.555.548 2.398-.099.476-.435.941-.767 1.32-.522.595-1.217.958-1.977 1.187-.617.186-1.166.04-1.576-.428-.42-.478-.376-1.08-.08-1.594.594-1.03 1.229-2.038 1.89-3.026.201-.301.27-.46-.04-.721-.34-.287-.638-.631-.926-.974-.18-.213-.307-.292-.528-.053-.47.511-.965.999-1.438 1.507-.288.31-.556.64-.83.961-.642.755-1.27 1.523-1.93 2.259-.36.399-.76.764-1.17 1.106-.548.455-1.098.326-1.297-.375-.189-.663-.277-1.372-.296-2.064-.042-1.507-.011-3.015-.014-4.522 0-.135-.015-.275-.053-.403-.033-.116-.107-.22-.163-.33l-.165.144c-.026.025-.049.052-.067.082-.48.786-.944 1.582-1.43 2.364-.307.492-.608.993-.972 1.44-1.101 1.354-2.093 2.819-3.545 3.837-.658.461-1.3.18-1.41-.62-.071-.514-.079-1.037-.114-1.556l.118-.01c-.058-.647-.153-1.293-.164-1.94-.012-.695.056-1.39.088-2.086.003-.065.003-.13.003-.196-.063.04-.139.07-.187.124-.963 1.09-1.872 2.236-2.898 3.26-.927.925-1.972 1.73-2.988 2.56-.19.156-.484.184-.732.265-.122.04-.266.038-.367.106-.725.49-1.522.264-1.737-.62-.244-.999-.328-2.037-.484-3.058-.022-.144-.061-.285-.092-.428-.105.078-.23.137-.311.235-.544.654-1.074 1.319-1.617 1.974-.182.219-.287.514-.716.442-.105-.018-.458.425-.747.622-.381.259-.676.645-1.02.964-.443.409-.843.919-1.362 1.175-.567.28-1.242.374-1.881.448-.615.071-1.008-.474-1.043-1.386-.015-.38.011-.782.118-1.144.693-2.346 1.836-4.431 3.387-6.325.751-.917 1.593-1.67 2.522-2.368 1.07-.807 2.243-1.278 3.575-1.322.338-.011.71-.066 1.008.053.5.2.771.83.516 1.294-.587 1.066-.681 2.26-1.008 3.392-.471 1.638-.094 3.188.232 4.76.081.393.279.378.582.217 1.461-.778 2.676-1.86 3.736-3.126.907-1.084 1.792-2.187 2.674-3.292.3-.376.517-.835.862-1.156.174-.162.583-.202.825-.118.326.113.422.439.397.837-.046.706.02 1.42.01 2.13-.007.672-.07 1.344-.072 2.016-.004.7.03 1.398.061 2.097.004.102.075.202.115.303.089-.06.193-.106.263-.183 1.422-1.583 2.825-3.173 3.847-5.079.465-.868 1.069-1.666 1.671-2.447.191-.248.61-.503.87-.455.277.05.649.427.703.715.181.965.385 1.965.312 2.931-.108 1.423-.11 2.82.131 4.221.019.108.054.213.081.32.106-.061.24-.098.314-.187.9-1.089 1.774-2.2 2.692-3.275.609-.714 1.259-1.394 1.926-2.052.319-.315.58-.601.547-1.094-.04-.588.322-.974.82-1.095.66-.16 1.35-.22 2.028-.234.172-.003.468.322.491.522.022.183-.235.56-.394.574-.617.056-.871.586-1.284.895-.239.18-.251.468-.044.723l.126.158c.878 1.133.879 1.133 1.974.254.977-.784 2.136-1.206 3.298-1.556 1.173-.354 2.272.491 2.634 1.789.148.531.418 1.032.676 1.524.08.154.287.278.46.335.97.317 1.89.182 2.741-.387.08-.053.13-.155.192-.234-.093-.032-.19-.099-.28-.092-.782.058-1.427-.259-2.03-.724-.63-.488-.788-1.078-.663-1.886.316-2.056 2.246-3.851 4.276-4.1 1.377-.168 2.314.766 2.142 2.158zm-41.713-.22c-.925.565-1.811 1.197-2.699 1.823-.254.18-.52.382-.69.636-.957 1.432-1.961 2.842-2.798 4.345-.492.884-.702 1.928-1.04 2.9l.164.02c-.193.655.192.52.527.437.084-.02.16-.077.237-.121 2.434-1.37 4.5-3.136 5.81-5.682.421-.817.825-1.658 1.097-2.532.146-.473-.001-1.03.523-1.37.1-.064.111-.271.163-.413-.147-.006-.295-.011-.442-.019-.288-.014-.648-.15-.852-.025zm-30.15 6.88c-.115.047-.256.067-.338.148-.236.234-.41.554-.68.727-.481.31-.948.6-1.203 1.152-.076.165-.24.287-.365.43.22.071.437.17.664.205.144.022.347 0 .446-.09l.26-.23c.611-.536 1.229-1.082 1.247-2.103l-.032-.24zm57.062-.765c-.654.792-1.306 1.593-1.669 2.575-.064.175-.029.466.081.605.083.103.405.129.541.05.482-.28.96-.583 1.378-.95.228-.202.33-.55.517-.88-.181-.482-.334-.922-.521-1.347-.026-.06-.288-.1-.327-.053zM45.712 12.775c-1.26 1.115-1.696 2.708-2.366 4.143-.553 1.184-.796 2.515-1.216 3.768-.428 1.28-.904 2.544-1.358 3.816-.036.101-.066.206-.092.311-.169.693-.293 1.4-.513 2.077-.458 1.414-1.024 2.794-1.434 4.222-.346 1.206-.544 2.458-.789 3.693-.168.85.119 1.102.958.878.171-.046.35-.074.513-.14.772-.312 1.747-.213 2.23-1.124.021-.041.132-.034.202-.05l.029.104c.157-.056.344-.075.467-.175.481-.39.937-.812 1.412-1.21.612-.513 1.323-.937 1.832-1.537 1.202-1.416 2.284-2.93 3.126-4.605.339-.673.666-1.355 1.052-2 .975-1.634 1.313-3.396 1.148-5.28.42-3.45-.925-4.979-.997-5.407-.035-.206-.148-.45-.305-.575-.57-.455-1.147-.911-1.771-1.283-.672-.401-1.554-.133-2.128.374zM26.54 25.873c-.296.586-.882.914-1.252 1.408-.693.924-1.015 2.129-2.074 2.782-.066.041-.084.156-.137.227-.192.26-.394.512-.581.775-.05.071-.061.171-.09.258.765.158.217.616.19.936-.017.213-.137.417-.198.586.086.468.177.885.234 1.307.059.438.221.514.548.214.983-.905 1.982-1.792 2.941-2.722.28-.272.427-.636.337-1.104-.078-.405.021-.847.055-1.271.083-1.051.176-2.101.257-3.153.007-.083-.026-.178-.065-.253-.012-.022-.151-.017-.165.01zm69.451-.299c-1.638.18-2.828 1.294-3.142 2.926-.157.814.319 1.499 1.127 1.611.198.028.4.026.6.038.873.009 1.034-.042 1.307-.565.5-.959.926-1.934 1.067-3.039.092-.716-.27-1.046-.959-.97zM34.372 20.83l.021-.009c-.498.203-.983.508-1.498.576-.382.05-.659.077-.885.422-.114.175-.341.28-.528.399-.43.272-.958.304-1.33.79-.166.215-.648.597-1.15.45-.067-.02-.217.083-.254.165-.183.403-.441.807-.49 1.232-.176 1.54-.283 3.088-.405 4.633-.01.121.06.249.093.374.125-.066.28-.104.37-.203.743-.828 1.476-1.664 2.206-2.503.522-.601 1.093-1.17 1.537-1.828.685-1.015 1.31-2.077 1.9-3.153.187-.34.26-.745.357-1.135l.056-.21zm-.952-7.267c-.296.193-.54.468-.836.66-.378.243-.888.356-1.152.682-.287.354-.327.902-.53 1.34-.248.539-.568 1.043-.828 1.576-.404.825-.786 1.66-1.17 2.496-.083.181-.173.372-.196.567-.078.64-.133 1.285-.18 1.93-.008.115.065.237.1.356.117-.049.284-.065.34-.154.198-.315.454-.433.824-.455.189-.01.37-.217.55-.342.247-.171.478-.371.738-.52.76-.433 1.544-.824 2.292-1.277.48-.291.888-.189 1.002.29l.013.078.111-.209c.25-.45.546-.89.65-1.372.292-1.348.44-2.732.19-4.105-.085-.466-.339-.93-.616-1.323-.318-.453-.853-.511-1.302-.218z"/>
        <g transform="translate(173)">
            <mask id="prefix__b" fill="#fff">
                <use xlink:href="#prefix__a"/>
            </mask>
            <path fill="#000" d="M31.699 25.811l6.033-.483-.029-.244c-1.987-.99-5.282-.618-6.004.727M17.887 38.6c.162-.02.325-.04.488-.058v-7.77l-2.377.726 1.889 7.102m10.128-12.37c-.227-.095-.44-.141-.598-.26-.524-.392-1.136-.73-1.523-1.233-1.583-2.059-3.092-4.174-4.64-6.26-.203-.274-.47-.5-.707-.749l-.24.1c-.203 1.585-.491 3.165-.585 4.757-.096 1.612.01 3.235.01 4.853 0 .606.183.932.875.774 2.316-.53 4.637-1.044 6.954-1.573.083-.019.146-.126.454-.408M2.386 1.703c-.368-.696-.036-1.165.45-1.436.642-.358 1.402-.408 1.943.176.634.683 1.325 1.396 1.687 2.226.717 1.644 1.205 3.385 1.826 5.072 1.208 3.284 2.274 6.607 3.088 10.011.328 1.371.777 2.713 1.189 4.063.063.207.22.385.334.577l.257-.01c.056-.33.163-.661.157-.99-.031-1.487-.075-2.975-.159-4.46-.026-.473-.206-.936-.285-1.409-.112-.676-.284-1.36-.252-2.034.015-.31.451-.602.697-.903.245.286.672.553.707.863.18 1.616.231 3.246.38 4.867.284 3.101.585 6.202.924 9.298.058.526.338 1.029.534 1.596.42-.087.72-.141 1.017-.212 1.842-.437 1.783-.436 1.7-2.242-.047-1.027.157-2.064.205-3.098.082-1.744.108-3.49.203-5.234.037-.683.14-1.374.324-2.03.077-.276.446-.668.676-.664.438.009 1.04.134 1.279.438 1.156 1.475 2.207 3.03 3.31 4.547.653.897 1.28 1.82 2.015 2.649 1.379 1.554 1.81 1.76 4.076.792 2.31-.988 4.569-1.082 6.96-.757 1.305.177 2.56.398 3.824.873 1.639.614 3.394.076 5.081-.204 3.425-.57 6.87-1.037 10.342-.866 1.908.094 3.798.562 5.697.856.483.075 1.016.036 1.44.231.354.163.582.591.866.902-.35.138-.72.434-1.044.39-1.867-.254-3.715-.646-5.584-.882-2.663-.336-5.316-.185-7.927.458-.317.078-.77.252-.856.489-.301.837-.98.982-1.68.978-1.113-.006-2.224-.148-3.337-.199-.757-.035-1.52-.052-2.274-.005-1.01.062-2.023.156-3.024.302-1.973.287-3.944.594-5.907.94-3.334.59-6.664 1.198-9.988 1.839-.992.191-1.955.528-2.935.781-.596.154-.879.438-.784 1.115.064.458.074 1.074-.18 1.396-.544.688-.205 1.339-.19 2.019.028 1.243-.034 2.488-.002 3.73.09 3.485.21 6.97.31 10.454.01.345.054.745-.097 1.022-.173.316-.549.522-.836.775-.215-.275-.584-.534-.616-.828-.115-1.067-.086-2.148-.174-3.219-.06-.719-.21-1.432-.348-2.142-.106-.544-.272-1.076-.385-1.619-.509-2.438-.98-4.885-1.522-7.316-.247-1.11-.634-2.19-.941-3.289-.155-.554-.43-.694-1.008-.503-2.89.952-5.804 1.834-8.685 2.81-1.22.414-2.38 1.001-3.568 1.503-.424.179-.882.415-1.156-.196-.265-.59-.178-1.129.47-1.388 2.002-.801 4.012-1.585 6.033-2.34 1.695-.633 3.406-1.225 5.116-1.817.425-.147.874-.228 1.314-.333.569-.135.841-.38.616-1.035-.392-1.14-.697-2.31-1.044-3.466-.616-2.055-1.2-4.12-1.862-6.161-.746-2.304-1.58-4.58-2.342-6.878C7.512 9.78 6.628 6.968 5.7 4.17c-.184-.554-.444-1.092-.73-1.604-.781-1.402-.994-1.468-2.585-.863" mask="url(#prefix__b)"/>
        </g>
        <g transform="translate(44 56)">
            <mask id="prefix__d" fill="#fff">
                <use xlink:href="#prefix__c"/>
            </mask>
            <path fill="#000" d="M10.313 5.959l-.147.094c.965 1.78 2.057 3.504 2.85 5.357.574 1.341 1.248 1.183 2.4.63L10.313 5.96m9.26 24.06l.129-.005c-.715-4.695-1.378-9.399-2.167-14.082-.395-2.35-.98-2.626-3.16-2.05 1.73 5.375 3.465 10.756 5.198 16.137m11.79-5.257c1.938-2.794 3.894-10.074 2.011-12.353-2.603 3.747-3.087 7.792-2.01 12.353m-12.02-7.005l1.58 11.624c.624-.469.867-.98 1.177-1.448.27-.408.614-.767.926-1.148.21.451.53.884.606 1.356.214 1.336.678 2.424 2.13 2.897-.337-3.298-2.476-7.747-6.419-13.281m70.2 20.473c-3.865 2.656-7.288 5.484-10.085 8.942-3.405 4.211-6.647 8.558-9.855 12.923-1.202 1.636-2.172 3.455-3.138 5.25-.921 1.71-.681 2.484 1.22 2.847 2.11.402 4.321.573 6.463.439 2.646-.166 5.274-.702 7.895-1.163 3.774-.663 7.442-1.745 10.785-3.632 3.525-1.99 3.234-4.654.1-6.77-.252-.17-.59-.217-.842-.388-2.084-1.407-4.23-2.735-6.21-4.278-1.594-1.242-1.82-3.06-.994-4.83.668-1.434 1.698-2.694 2.45-4.094.857-1.6 2.272-2.976 2.21-5.246m-71.492-7.926c-.263-1.177-.383-1.998-.632-2.778-1.326-4.143-2.683-8.276-4.029-12.413-.242-.746-.648-1.098-1.499-.829-2.136.675-3.908 1.876-5.354 3.568-3.316 3.88-4.76 8.449-5.001 13.483-.249 5.216.252 10.275 3.626 14.524 2.701 3.402 6.728 5.259 10.946 4.008 2.417-.717 4.323-2.203 6.049-3.986 3.119-3.224 4.458-7.099 4.22-11.532-.029-.532-.319-1.197-.714-1.534-1.05-.897-2.225-1.649-3.442-2.524-.635.386-1.013 1.072-.865 2.091.307 2.107.578 4.22.787 6.338.039.395-.285.825-.441 1.24-.426-.237-1.003-.373-1.242-.734-.33-.497-.428-1.158-.582-1.76-.373-1.46-.657-2.948-1.115-4.38-.163-.512-.65-1.009-1.118-1.317-1.065-.704-2.376-1.11-3.285-1.96-1.511-1.414-2.782-3.086-4.16-4.645-.582-.66-1.277-1.246-1.725-1.985-.242-.397-.068-1.047-.082-1.583.503.17 1.195.187 1.476.536 1.104 1.374 2.077 2.851 3.099 4.29 1.201 1.693 2.726 2.964 5.083 3.882M16.54 11.017c-.41-1.111-.762-1.925-1-2.772-.1-.352.042-.773.075-1.162.397.12.988.116 1.16.382.732 1.14 1.46 2.312 1.957 3.564.394.992.516 2.04 1.706 2.493.32.122.504.606.75.925l-.242.336-2.524-1.094c.343.7.479 1.14.74 1.486 3.538 4.672 6.636 9.57 8.022 15.368.027.114.154.205.232.304 2.047-1.04 3.047-3.579 2.524-5.717-1.1-4.492-.767-8.849 1.869-12.79.395-.591 1.413-1.227 1.984-1.104.538.116 1.073 1.157 1.25 1.879.858 3.506-.352 6.766-1.416 10.02-.385 1.176-.92 2.302-1.326 3.471-.138.397-.275.956-.102 1.271.87 1.593 1.72 3.222 2.814 4.659.956 1.256 2.267 1.182 3.3-.008 1.721-1.98 2.963-4.191 3.1-6.91.034-.65.254-1.314.511-1.918.097-.23.54-.312.826-.46.13.254.375.512.367.762-.02.572-.156 1.14-.256 1.708-.299 1.692-.035 3.243 1.212 4.857.291-.598.532-.988.677-1.411.434-1.26.748-2.57 1.276-3.787.263-.605.893-1.049 1.357-1.566.372.548.787 1.071 1.103 1.65.224.41.315.893.472 1.364.927-.28.918-2.113 2.165-1.284.72.48 1.138 1.415 1.893 2.41.32-.858.484-1.576.849-2.17.228-.372.745-.728 1.16-.76.237-.02.705.594.762.97.233 1.564.395 1.705 2.136 1.327.028-.278.032-.583.095-.875.207-.962.77-1.222 1.676-.846.432.179 1.013.533 1.322.383 1.582-.764 3.142-1.596 4.615-2.55.765-.497.637-1.118-.333-1.372-.257-.067-.606-.067-.747-.236-.31-.37-.514-.829-.762-1.251.39-.11.802-.363 1.167-.306 2.523.394 4.206 2.142 5.725 3.951.52.62.389 1.786.558 2.716 3.393.819 7.064 1.482 10.583 2.618 3.488 1.125 6.971 2.5 9.093 6.02 1.643-1.187 3.232-2.296 4.78-3.459 4.368-3.28 8.728-6.57 13.073-9.882 1.656-1.262 1.601-1.463-.365-2.253-.217-.088-.395-.273-.592-.412l.187-.464c.924.354 1.91.61 2.739 1.119.27.166.36 1.135.139 1.49-.456.735-1.107 1.398-1.803 1.924-4.994 3.77-10.019 7.5-15.034 11.24-.178.133-.347.284-.54.39-1.334.732-2.214 1.661-2.39 3.345-.306 2.954-2.358 5.105-3.832 7.522-.583.957-1.104 2.052-1.271 3.143-.312 2.034 1.355 2.98 2.723 3.904 1.5 1.013 3.257 1.658 4.717 2.718 1.252.91 2.452 2.047 3.263 3.343.42.673.218 2.035-.174 2.862-1.15 2.429-3.505 3.513-5.863 4.304-6.46 2.17-13.034 3.898-19.94 3.562-1.391-.067-2.821-.375-4.13-.855-2.258-.83-2.658-1.972-1.388-4.109 1.675-2.82 3.416-5.614 5.331-8.274 2.566-3.563 5.11-7.18 8.062-10.411 2.767-3.03 6.05-5.587 9.113-8.345.362-.326.743-.646 1.16-.895.673-.403.693-.967.261-1.45-.816-.915-1.598-1.98-2.632-2.557-4.632-2.58-9.598-4.128-14.931-4.426-.861-.048-1.758-.333-2.527-.726-.305-.157-.577-1.074-.401-1.361 1.108-1.811 1.028-2.174-.997-3.037-1.866 2.12-4.2 3.463-6.901 4.242-.555.16-.993.688-1.537.932-1.44.647-2.909.713-4.31-.046-1.602 1.546-1.689 1.535-4.367-.535-.073.169-.217.336-.191.47.14.74.036 1.52-.777 1.528-.494.005-1.12-.585-1.463-1.067-.438-.616-.65-1.392-1.289-2.078-.358 1.391-.69 2.79-1.082 4.171-.514 1.814-1.24 2.008-2.551.677-.524-.531-.956-1.153-1.431-1.737-.76 1.087-1.523 2.25-2.358 3.36-1.35 1.798-3.673 1.94-5.135.202-1.16-1.38-2.104-2.941-3.232-4.548-.5.79-.841 1.92-1.594 2.393-1.859 1.166-1.631 2.838-1.643 4.584-.05 7.514-6.747 14.467-12.562 15.408-2.954.479-5.522-.413-7.948-1.958-4.555-2.9-6.266-7.404-6.982-12.461-.655-4.622-.24-9.18 1.31-13.552C3.38 18.51 6.17 14.344 11.7 12.86c.122-.033.225-.132.527-.316-1.094-2.068-2.103-4.182-3.303-6.182C7.84 4.556 6.53 2.886 5.365 1.125 5.179.843 5.23.403 5.172.036c.5.022 1.147-.148 1.473.102.874.67 1.66 1.476 2.395 2.304 2.445 2.754 4.851 5.541 7.5 8.575" mask="url(#prefix__d)"/>
        </g>
    </g>
</svg>
