<?xml version="1.0" encoding="UTF-8"?>
<svg width="915px" height="297px" viewBox="0 0 915 297" version="1.1" xmlns="http://www.w3.org/2000/svg" xmlns:xlink="http://www.w3.org/1999/xlink">
    <!-- Generator: Sketch 59.1 (86144) - https://sketch.com -->
    <title>Logo Stamp White Transparent</title>
    <desc>Created with Sketch.</desc>
    <g id="Logo-Stamp-White-Transparent" stroke="none" stroke-width="1" fill="none" fill-rule="evenodd">
        <path d="M915,0.001 L915,297.001 L0,297.001 L0,0.001 L915,0.001 Z M890.78,24.224 L24.223,24.224 L24.223,272.78 L890.78,272.78 L890.78,24.224 Z" id="Combined-Shape" fill="#FFFFFF"></path>
        <polygon id="Fill-2" fill="#FFFFFF" points="289.3818 49.2551 267.2768 49.2551 186.5688 247.5811 208.5698 247.5811"></polygon>
        <path d="M789.6694,113.153 C816.2984,113.153 830.5894,130.014 830.5894,153.97 L830.5894,213.909 L810.2314,213.909 L810.2314,158.287 C810.2314,141.941 801.2874,132.482 786.4824,132.482 C771.4724,132.482 759.2364,141.941 759.2364,158.287 L759.2364,213.909 L738.8804,213.909 L738.8804,69.149 L759.3394,69.149 L759.3394,127.65 L759.6894,127.132 C763.2634,121.991 772.5754,113.153 789.6694,113.153" id="Fill-3" fill="#FFFFFF"></path>
        <path d="M630.104,164.0451 C630.104,194.8891 652.928,215.9661 686.24,215.9661 C697.343,215.9661 707.522,213.1901 716.981,209.4881 L713.896,190.9821 C706.083,194.5801 695.493,197.0481 686.24,197.0481 C664.958,197.0481 650.46,183.4771 650.46,164.0451 C650.46,145.2311 664.958,132.0701 686.035,132.0701 C697.343,132.0701 706.494,134.7431 713.485,137.9311 L715.644,119.7331 C711.018,117.1631 699.091,113.1531 686.035,113.1531 C652.826,113.1531 630.104,133.8181 630.104,164.0451" id="Fill-5" fill="#FFFFFF"></path>
        <path d="M614.1675,132.4816 L614.1675,115.2096 L584.8655,115.2096 L584.8655,83.5426 L565.0225,83.5426 L565.0225,115.2096 L547.1335,115.2096 L547.1335,132.4816 L564.7145,132.4816 L564.7145,184.2986 C564.7145,204.3476 577.6695,215.9656 598.3345,215.9656 C606.2515,215.9656 614.9905,214.6286 619.9255,212.6756 L617.2525,195.1976 C612.4205,196.6366 605.9425,197.5626 601.2135,197.5626 C591.1375,197.5626 585.0715,192.3186 585.0715,181.8326 L585.0715,132.4816 L614.1675,132.4816 Z" id="Fill-7" fill="#FFFFFF"></path>
        <path d="M474.856,197.6652 C455.836,197.6652 443.19,182.2432 443.19,164.0452 C443.19,145.8472 455.836,131.4532 474.856,131.4532 C493.774,131.4532 507.448,145.8472 507.448,164.0452 C507.448,182.2432 493.877,197.6652 474.856,197.6652 L474.856,197.6652 Z M507.551,115.2092 L507.551,128.6772 C500.252,119.3212 489.147,113.1532 472.389,113.1532 C444.321,113.1532 422.833,133.7152 422.833,164.0452 C422.833,194.3752 444.321,215.9662 472.389,215.9662 C489.147,215.9662 500.252,209.7972 507.551,200.4402 L507.551,213.9092 L527.908,213.9092 L527.908,115.2092 L507.551,115.2092 Z" id="Fill-9" fill="#FFFFFF"></path>
        <path d="M359.397,113.153 C341.713,113.153 332.357,122.611 329.067,127.65 L329.067,69.149 L308.608,69.149 L308.608,213.909 L328.965,213.909 L328.965,158.287 C328.965,141.941 341.199,132.482 356.21,132.482 C371.015,132.482 379.96,141.941 379.96,158.287 L379.96,213.909 L400.317,213.909 L400.317,153.97 C400.317,130.014 386.026,113.153 359.397,113.153" id="Fill-11" fill="#FFFFFF"></path>
        <path d="M154.4907,170.9338 C154.4907,186.1498 144.5177,196.8428 129.8157,196.8428 C115.2167,196.8428 105.2437,186.1498 105.2437,170.9338 L105.2437,115.2088 L84.7837,115.2088 L84.7837,174.4298 C84.7837,199.1048 103.0847,215.9658 129.8157,215.9658 C156.3417,215.9658 174.6417,198.7958 174.7447,173.8128 L174.7447,115.2088 L154.4907,115.2088 L154.4907,170.9338 Z" id="Fill-13" fill="#FFFFFF"></path>
    </g>
</svg>